<svg xmlns="http://www.w3.org/2000/svg" viewBox="0 0 1024 1024" version="1.1"><path d="M188.2 382.3c-70.2 0-127.3 57.1-127.3 127.3 0 70.2 57.1 127.3 127.3 127.3s127.3-57.1 127.3-127.3C315.5 439.4 258.4 382.3 188.2 382.3zM188.2 441.8c37.4 0 67.8 30.4 67.8 67.8 0 37.4-30.4 67.8-67.8 67.8s-67.8-30.4-67.8-67.8C120.4 472.2 150.8 441.8 188.2 441.8z" fill="#575B66" p-id="2197"></path><path d="M840 382.3c-70.2 0-127.3 57.1-127.3 127.3 0 70.2 57.1 127.3 127.3 127.3s127.3-57.1 127.3-127.3C967.3 439.4 910.2 382.3 840 382.3zM840 441.8c37.4 0 67.8 30.4 67.8 67.8 0 37.4-30.4 67.8-67.8 67.8s-67.8-30.4-67.8-67.8S802.6 441.8 840 441.8z" fill="#575B66" p-id="2198"></path><path d="M515.5 382.3c-70.2 0-127.3 57.1-127.3 127.3 0 70.2 57.1 127.3 127.3 127.3s127.3-57.1 127.3-127.3C642.8 439.4 585.7 382.3 515.5 382.3zM515.5 441.8c37.4 0 67.8 30.4 67.8 67.8 0 37.4-30.4 67.8-67.8 67.8s-67.8-30.4-67.8-67.8C447.7 472.2 478.1 441.8 515.5 441.8z" fill="#575B66" p-id="2199"></path></svg>