<svg xmlns="http://www.w3.org/2000/svg" viewBox="0 0 1024 1024" version="1.1"><path d="M410.4 318.4c0 56.9-46.4 103.4-103.4 103.4s-103.4-46.4-103.4-103.4 46.4-103.4 103.4-103.4S410.4 261.5 410.4 318.4zM341.4 318.4c0-19.1-15.5-34.4-34.4-34.4s-34.4 15.5-34.4 34.4c0 18.9 15.5 34.4 34.4 34.4C326 353 341.4 337.5 341.4 318.4z" fill="#575B66" p-id="1853"></path><path d="M616.2 183.7l312.4 317.2c20 19.4 31.5 47.3 31.5 76.7 0 29.2-11.4 56.9-31.1 76L645.6 929.6c-39.2 38-113.9 38.2-153.3-0.2L140.2 585c-60.7-59-76.2-82.6-76.2-162.6l0-151.5c0-142.9 29.1-206.8 201.3-206.8l142.1 0C494.7 64 545.6 114.2 616.2 183.7zM597.6 880l283.3-275.7c6.5-6.4 10.1-16 10.1-26.7 0-10.8-3.8-20.8-11.2-27.9L596.4 260.9 567.6 232.9c-70.2-69.3-103.7-99.9-160.5-99.9l-142.1 0c-123.3 0-132.3 19.1-132.3 137.8l0 151.5c0 54.5 1.5 61.1 55.4 113.2l352.1 344.5c6.9 6.7 17.2 10.5 28.6 10.5C580.2 890.5 590.7 886.7 597.6 880z" fill="#575B66" p-id="1854"></path></svg>