<svg xmlns="http://www.w3.org/2000/svg" viewBox="0 0 1024 1024" version="1.1"><path d="M242.9 608.4c-8.1 0-16.2-2.9-22.4-9.1-12.7-12.4-12.9-32.5-0.7-45.2 77.9-80.2 182.3-124.2 294.1-124.2 109.4 0 212.3 42.5 289.8 119.7 12.6 12.6 12.6 32.7 0 45.2-12.4 12.6-32.7 12.6-45.2 0-65.4-65.2-152.2-101.1-244.6-101.1-94.4 0-182.5 37.2-248.2 104.8C259.4 605.1 251.1 608.4 242.9 608.4z" fill="#575B66" p-id="1758"></path><path d="M96.2 445.9c-8.1 0-16.3-3.1-22.5-9.3-12.6-12.4-12.6-32.7-0.2-45.2 117.3-118.3 273.8-183.5 440.5-183.5 164.4 0 319.3 63.6 436.2 179.2 12.6 12.4 12.7 32.7 0.2 45.2-12.4 12.6-32.7 12.7-45.2 0.3-104.9-103.6-243.9-160.7-391.3-160.7-149.5 0-289.8 58.5-395.1 164.6C112.7 442.8 104.4 445.9 96.2 445.9z" fill="#575B66" p-id="1759"></path><path d="M509.8 816c-7.9 0-15.7-2.9-21.7-8.6L393.1 719c-12.6-11.7-13.8-31.3-2.4-44.4 30.3-35.1 73.8-55.2 119.4-55.2 47.6 0 92.5 21.7 123 59.5 10.7 13.4 8.9 32.9-4 44.2l-98 84.8C524.6 813.5 517.2 816 509.8 816zM462.5 696.7l47.8 44.6 49.4-42.7C531.2 679.8 492.1 679.1 462.5 696.7z" fill="#575B66" p-id="1760"></path></svg>