<svg xmlns="http://www.w3.org/2000/svg" viewBox="0 0 1024 1024" version="1.1"><path d="M149.9 387.6l154.2 0c49.5 0 89.6-40.1 89.6-89.6L393.7 143.8C393.7 94.3 353.6 54.2 304.5 54.2L149.9 54.2c-49.5 0-89.6 40.1-89.6 89.6l0 154.2C60.3 347.5 100.8 387.6 149.9 387.6zM136.5 143.8c0-7.2 6.1-13.4 13.4-13.4l154.2 0c7.2 0 13.4 6.1 13.4 13.4l0 154.2c0 7.2-6.1 13.4-13.4 13.4L149.9 311.4c-7.2 0-13.4-6.1-13.4-13.4L136.5 143.8z" fill="#575B66" p-id="2030"></path><path d="M304.5 628.5 149.9 628.5c-49.5 0-89.6 40.1-89.6 89.6l0 154.2c0 49.5 40.1 89.6 89.6 89.6l154.2 0c49.5 0 89.6-40.1 89.6-89.6l0-154.2C393.7 668.6 353.6 628.5 304.5 628.5zM317.5 872.3c0 7.2-6.1 13.4-13.4 13.4L149.9 885.7c-7.2 0-13.4-6.1-13.4-13.4l0-154.2c0-7.2 6.1-13.4 13.4-13.4l154.2 0c7.2 0 13.4 6.1 13.4 13.4L317.5 872.3z" fill="#575B66" p-id="2031"></path><path d="M878.8 54.2l-154.2 0c-49.5 0-89.6 40.1-89.6 89.6l0 154.2c0 49.5 40.1 89.6 89.6 89.6l154.2 0c49.5 0 89.6-40.1 89.6-89.6L968.4 143.8C968 94.3 927.9 54.2 878.8 54.2zM891.8 298c0 7.2-6.1 13.4-13.4 13.4l-154.2 0c-7.2 0-13.4-6.1-13.4-13.4L710.8 143.8c0-7.2 6.1-13.4 13.4-13.4l154.2 0c7.2 0 13.4 6.1 13.4 13.4L891.8 298z" fill="#575B66" p-id="2032"></path><path d="M674 552.3c19.9 0 36.1-15.9 35.8-36.1 0-19.9-15.9-36.1-36.1-36.1l-126.1 0L547.6 338.4c0-19.9-15.9-36.1-36.1-35.8-19.9 0-36.1 15.9-36.1 36.1L475.3 480.4 96.4 480.4c-19.9 0-36.1 15.9-36.1 36.1 0 19.9 15.9 36.1 36.1 36.1l379.6 0 0 169c0 19.9 15.9 36.1 36.1 36.1s36.1-15.9 36.1-36.1l0-169L674 552.6z" fill="#575B66" p-id="2033"></path><path d="M932.3 552.3c19.9 0 36.1-15.9 35.8-36.1 0-19.9-15.9-36.1-36.1-36.1l-79.8 0c-19.9 0-36.1 15.9-36.1 36.1 0 19.9 15.9 36.1 36.1 36.1L932.3 552.3z" fill="#575B66" p-id="2034"></path><path d="M511.8 166.9c19.9 0 36.1-15.9 36.1-36.1L547.9 88.9c0-19.9-15.9-36.1-36.1-35.8-19.9 0-36.1 15.9-36.1 36.1l0 41.9C476.1 150.6 492 166.9 511.8 166.9z" fill="#575B66" p-id="2035"></path><path d="M511.8 849.2c-19.9 0-36.1 15.9-36.1 36.1l0 41.9c0 19.9 15.9 36.1 36.1 36.1s36.1-15.9 36.1-36.1l0-42.3C547.9 865.1 531.7 849.2 511.8 849.2z" fill="#575B66" p-id="2036"></path><path d="M892.9 871.6c0 7.2-6.1 13-13 13l-38.6 0 0 75.1 38.6 0c48.8 0 88.5-39.7 88.5-88.5l0-43.7-75.1 0L893.2 871.6z" fill="#575B66" p-id="2037"></path><path d="M879.5 631l-152.4 0c-48.8 0-88.5 39.7-88.5 88.5l0 152.4c0 48.8 39.7 88.5 88.5 88.5l38.6 0L765.7 884.9l-38.6 0c-7.2 0-13-6.1-13-13l0-152.4c0-7.2 6.1-13 13-13l152.4 0c7.2 0 13 6.1 13 13l0 33.6L968 753.1l0-33.6C968 670.7 928.3 631 879.5 631z" fill="#575B66" p-id="2038"></path></svg>