<svg xmlns="http://www.w3.org/2000/svg" viewBox="0 0 1024 1024" version="1.1"><path d="M950.9 306.4c7.4 4 12.9 9.3 16.5 16.2 3.6 6.9 5.5 13.8 5.5 20.6 0 6.9-1.9 13.2-5.5 19.1-3.6 5.8-8.8 10.1-15.5 12.7-7.4 2.6-12.7 6.4-16 11.4-3.3 4.8-5.2 10.3-5.5 16.2-0.3 5.8 1 11.5 4 17.2 2.9 5.5 7.9 10.3 14.4 14.3 6.7 4 11.5 9.1 14.4 15.7 2.9 6.5 4.3 13.1 4 19.6-0.3 6.5-2.1 12.6-5 18.2-2.9 5.5-7.6 8.6-13.4 9.3-5.3 1.4-9.1 4.1-11.5 8.4-2.4 4.3-3.4 8.9-3.4 14.3 0 5.2 1.2 10.3 3.4 15.1 2.4 5 6.2 8.4 11.5 10.3 5.3 1.9 9.5 5.8 12.6 11.7 2.9 5.8 4.6 12 5 18.6 0.3 6.5-0.5 12.7-2.4 18.6-2.1 5.8-5 10.1-8.9 12.7-13.4 7.9-20 16.7-20 26.5s6.7 19.6 20 29.4c2.6 1.9 5.2 5.5 7.6 10.8 2.4 5.2 3.4 10.5 3.4 15.7 0 5.2-1.4 9.8-4 13.8-2.8 4-7.4 5.8-13.9 5.8l-54 0c-4 0-6.2-0.3-6.5-1-0.3-0.7 0.2-1.7 1.5-3.4 1.4-1.7 2.9-3.4 5-5.3 2.1-1.9 3.6-4.3 5-6.9 3.3-9.1 3.3-17 0-23.6-3.4-6.5-8.9-12-17-16.7-5.3-2.6-9.1-6.7-11.5-12.2-2.4-5.5-3.3-11.4-3.1-17.2 0.3-5.8 1.5-11.2 3.4-15.7 2.1-4.6 5-7.9 8.9-9.8 5.3-1.9 9.3-5.5 12-10.8 2.6-5.2 4-10.8 4-16.7 0-5.8-1-11.4-2.9-16.2-2.1-5-5-8.3-8.9-10.3-5.3-2.6-9.5-6.5-12.6-11.7-2.9-5.2-4.5-11.2-4.5-17.7 0-6.5 1.4-12.9 4-19.1 2.6-6.2 7.1-11.4 13.1-15.1 4-2.6 7.4-6.2 10-10.8 2.8-4.6 4.1-9.5 4.5-14.8 0.3-5.2-0.7-10.3-2.9-15.1-2.4-5-6.5-8.9-12.6-12.2-6.7-3.3-11.5-8.1-14.4-14.3-3.1-6.2-4.5-12.6-4.5-19.1 0-6.5 1.5-12.7 4.5-18.6 2.9-5.8 7.2-10.5 12.6-13.8 11.4-5.8 17.5-13.9 18.6-24.1 1-10.1 0.2-19.4-2.6-28-2.1-6.5-6-12.4-12-17.7-6-5.2-13.6-7.9-23-7.9l-479.9 0 0-77.6 563 0c4.6 0 8.6 1.7 12 4.8 3.3 3.3 5.5 7.2 6.5 11.9 1 4.6 0.7 9.3-1 14.3-1.7 4.8-4.8 8.9-9.5 12.2-4 3.3-7.6 7.6-10.5 12.7-2.9 5.2-4.6 10.7-5 16.2-0.3 5.5 0.5 11.2 2.6 16.7C941.9 299.6 945.6 303.8 950.9 306.4zM134 258.4c0-13.1 5.2-25.1 15.5-36.3 10.3-11.2 21.5-16.7 33.5-16.7l138 0L321 283.8 134 283.8 134 258.4zM228.1 818.6l-55 0c-14.6 0-29.2-0.2-43.5-0.5-14.3-0.3-24.1-0.5-29.4-0.5-18.1 0.7-30.6-2.2-38-8.8-7.4-6.5-11-18.9-11-37.3l0-141.2c0-7.2 1.2-12.6 3.4-16.2 2.4-3.6 7.2-6 14.4-7.4 2.8 0 6.4-1 11-2.9 4.6-1.9 9.3-5 13.9-9.3 4.6-4.3 8.6-9.8 12-16.7 3.3-6.9 5-15.1 5-24.9 0-15.1-4.1-26.8-12.6-35.3-8.3-8.6-17.2-13.4-26.5-14.8-7.4-1.4-12.7-3.4-16-6.4-3.3-2.9-5-8.1-5-15.1l0-104.1c0-17.7 2.9-30.3 8.9-37.8 6-7.6 19.3-11.4 39.9-11.4l128 0L227.7 818.6zM828.4 334.4c2.9 4.3 4.6 8.9 5 14.3 0.3 5.2-0.9 10.5-3.4 15.7-2.6 5.2-7.1 8.8-13.1 10.8-6 1.9-10.8 5.2-14.4 9.8-3.6 4.6-5.8 9.6-6.5 15.1-0.7 5.5 0.7 11 4 16.2 3.3 5.3 8.9 9.1 17 11.7 6 2.6 10.8 6.5 14.4 11.7 3.6 5.2 5.7 10.7 6 16.2 0.3 5.5-1 10.8-4 15.7-2.9 5-7.9 8.3-14.4 10.3-7.9 1.9-14.1 5.7-18.6 11.4-4.3 5.5-6.7 11.4-7.1 17.2-0.3 5.8 1.4 11.9 5 17.7 3.6 5.8 9.1 10.1 16.5 12.7 6.7 2.6 11.7 6.5 15 11.7 3.3 5.2 5.2 10.8 5.5 16.7 0.3 5.8-0.9 11.5-3.4 16.7-2.6 5.2-6.7 9.1-12 11.9-16.7 7.9-25.3 17.4-26 28.4-0.7 11.2 5.7 20 19.1 26.5 6 2.6 10.8 6.7 14.4 12.2 3.6 5.5 5.7 11.5 6 17.7 0.3 6.2-0.9 11.7-3.4 16.7-2.6 4.8-7.1 8.3-12.9 10.3-8.1 1.9-14.1 5.5-18.6 10.8-4.3 5.2-6.7 10.8-7.1 16.7-0.3 5.8 1.4 11.7 5 17.7 3.6 5.8 9.5 10.8 17.5 14.8 5.3 2.6 9.1 6.7 11.5 12.2 2.4 5.5 3.1 11 2.6 16.2-0.7 5.2-2.6 10-5.5 14.3-2.9 4.3-7.2 6.4-12.6 6.4l-522.9 0L287.1 328l528.9 0C821.2 328 825.5 330.1 828.4 334.4zM498.2 502.3c-1-43.9-22.4-66.2-64.3-67.1-42.8 1-64.3 23.4-64.3 67.1l0 17.2c1.9 42 23.4 63.3 64.3 64.3 40.9-0.9 62.3-22.4 64.3-64.3L498.2 502.3zM603.4 425.2c-10.7-1.9-20 6.2-27.7 24.3l-117 231.5c-2.9 6.7-4.3 11.4-4.3 14.3 2.9 6.7 8.8 11 17.5 12.9 8.8 0.9 18.1-6.2 27.7-21.5l117-231.5c2.9-6.7 4.3-11.9 4.3-15.7C618 431.9 612.2 427.1 603.4 425.2zM705.8 618c-1-43.9-22.4-66.2-64.3-67.1-42.8 1-64.3 23.4-64.3 67.1l0 17.2c1 40.1 22.4 60.5 64.3 61.4 40.9-1 62.3-21.5 64.3-61.4L705.8 618zM641.4 669.5c-14.6 1-21.5-13.8-20.5-44.2-1-28.6 5.8-42.8 20.5-42.8 13.6-0.9 20 13.4 18.9 42.8C661.4 656.6 655 671.4 641.4 669.5zM433.8 552.3c-14.6 1.9-21-12.4-18.9-42.8-1.9-30.4 4.5-45.2 18.9-44.2 13.6 0 20.5 14.8 20.5 44.2C454.3 538.9 447.4 553.4 433.8 552.3z" fill="#575B66" p-id="1416"></path></svg>