<svg xmlns="http://www.w3.org/2000/svg" viewBox="0 0 1024 1024" version="1.1"><path d="M639.9 415.9 383.9 415.9c-17.7 0-32-14.3-32-32s14.3-32 32-32L639.9 351.9c17.7 0 32 14.3 32 32S657.6 415.9 639.9 415.9z" fill="#575B66" p-id="1403"></path><path d="M579.2 543.9 383.9 543.9c-17.7 0-32-14.3-32-32S366.4 479.9 383.9 479.9l195.2 0c17.7 0 32 14.3 32 32S596.9 543.9 579.2 543.9z" fill="#575B66" p-id="1404"></path><path d="M962.2 447.9c0-211.7-200.9-383.9-447.9-383.9S66.2 236.2 66.2 447.9c0 116.5 63 226 172.9 300.7 14.6 10 34.6 6.2 44.4-8.4 10-14.6 6.2-34.6-8.4-44.4-92-62.4-144.8-152.7-144.8-247.7 0-176.5 172.2-319.9 383.9-319.9s383.9 143.6 383.9 319.9-172.2 319.9-383.9 319.9c-2.1 0-3.6 0.7-5.5 1.2-15.1-2.8-30.4 5.2-35.8 20.1-6.2 17.4-46.4 46.6-94.1 73.8 17.4-58.1 9.1-70.7 3.4-79-6.7-10-17.9-16-29.9-16-17.7 0-32 14.3-32 32 0 5.8 1.5 11.2 4.3 16-3.3 18.2-17.2 60.9-33 99.8-5 12-2.1 26 7.4 35.1 6 5.8 14.1 8.9 22.2 8.9 4.3 0 8.8-0.9 13.1-2.8 36.5-16.3 147.6-69.1 187.7-125.6C765.3 828.1 962.2 657.6 962.2 447.9z" fill="#575B66" p-id="1405"></path></svg>