<svg xmlns="http://www.w3.org/2000/svg" viewBox="0 0 1024 1024" version="1.1"><path d="M511.9 67.1C264.9 67.1 64 239.4 64 451.2c0 116.5 63 226 174.1 301.4l84.1 51.9c-3.6 23.6-18.7 74.5-33.4 115.9-4.3 12-0.9 25.5 8.4 34.2 6 5.5 13.8 8.4 21.7 8.4 4.5 0 8.8-0.9 13.1-2.8 36.5-16.2 147.4-69 187.5-125.4 243.6-3.4 440.4-174.4 440.4-383.9C960 239.4 759.1 67.1 511.9 67.1zM580.2 543.9 385 543.9c-17.7 0-32-14.3-32-32s14.3-32 32-32l195.2 0c17.7 0 32 14.3 32 32S597.9 543.9 580.2 543.9zM640.9 415.9 385 415.9c-17.7 0-32-14.3-32-32s14.3-32 32-32l256 0c17.7 0 32 14.3 32 32C672.9 401.7 658.6 415.9 640.9 415.9z" fill="#575B66" p-id="1392"></path></svg>