<svg xmlns="http://www.w3.org/2000/svg" viewBox="0 0 1024 1024" version="1.1"><path d="M859.4 864.7 164.6 864.7c-55.9 0-101.5-45.6-101.5-101.5L63.1 260.8c0-55.9 45.6-101.5 101.5-101.5l694.8 0c55.9 0 101.5 45.6 101.5 101.5l0 502.5C960.9 819.1 915.3 864.7 859.4 864.7zM164.6 223.4c-20.6 0-37.5 16.7-37.5 37.3l0 502.5c0 20.6 16.7 37.3 37.5 37.3l694.8 0c20.6 0 37.5-16.7 37.5-37.3L896.9 260.8c0-20.6-16.7-37.3-37.5-37.3L164.6 223.4 164.6 223.4z" fill="#575B66" p-id="1784"></path><path d="M800.6 415.8 223.4 415.8c-17.7 0-32-14.4-32-32 0-17.7 14.4-32 32-32l577.3 0c17.7 0 32 14.4 32 32C832.7 401.5 818.3 415.8 800.6 415.8z" fill="#575B66" p-id="1785"></path><path d="M319.6 736.4l-96.2 0c-17.7 0-32-14.3-32-32 0-17.7 14.4-32 32-32l96.2 0c17.7 0 32 14.3 32 32C351.6 722.1 337.3 736.4 319.6 736.4z" fill="#575B66" p-id="1786"></path></svg>