<svg xmlns="http://www.w3.org/2000/svg" viewBox="0 0 1024 1024" version="1.1"><path d="M512 64c-247 0-448 201-448 448S265 960 512 960c247 0 448-201 448-448S759 64 512 64zM694.8 650c12.5 12.5 12.4 32.8-0.1 45.2-6.2 6.2-14.4 9.3-22.6 9.3-8.2 0-16.4-3.1-22.7-9.4l-137.6-138-138 136.6c-6.2 6.1-14.4 9.2-22.5 9.2-8.3 0-16.5-3.2-22.8-9.5-12.4-12.6-12.3-32.8 0.3-45.2l137.9-136.4-137.4-137.8c-12.5-12.5-12.4-32.8 0.1-45.2 12.5-12.5 32.7-12.4 45.2 0.1l137.6 138 138-136.6c12.5-12.4 32.8-12.3 45.2 0.3 12.4 12.6 12.3 32.8-0.3 45.2L557.3 512.1 694.8 650z" fill="#575B66" p-id="620"></path></svg>