<svg xmlns="http://www.w3.org/2000/svg" viewBox="0 0 1024 1024" version="1.1"><path d="M512 960c-247 0-448-201-448-448S265 64 512 64 960 265 960 512 759 960 512 960zM512 128.3c-211.6 0-383.7 172.1-383.7 383.7 0 211.6 172.1 383.7 383.7 383.7 211.6 0 383.7-172.2 383.7-383.7C895.7 300.4 723.6 128.3 512 128.3z" fill="#575B66" p-id="631"></path><path d="M557.1 513.4l138.4-136.9c12.6-12.4 12.7-32.7 0.3-45.2s-32.7-12.7-45.2-0.3l-138.6 137-136.4-136.9c-12.5-12.5-32.7-12.6-45.2-0.1-12.5 12.5-12.5 32.7-0.1 45.2l136.3 136.7-137.4 135.9c-12.6 12.4-12.7 32.7-0.3 45.2 6.3 6.3 14.5 9.5 22.8 9.5 8.1 0 16.3-3.1 22.5-9.2l137.6-136.1 138.7 139.1c6.2 6.3 14.4 9.4 22.7 9.4 8.2 0 16.4-3.1 22.6-9.3 12.5-12.5 12.5-32.7 0.1-45.2L557.1 513.4z" fill="#575B66" p-id="632"></path></svg>