<svg xmlns="http://www.w3.org/2000/svg" viewBox="0 0 1024 1024" version="1.1"><path d="M957.9 426.6c-7.2-27.1-18.8-52.4-34.7-75.1 0 0-0.4-0.4-0.4-0.4l-0.7 0.4L922.1 120.3c0-17-13.7-30.3-30.3-30.3s-30.3 13.7-30.3 30.3l0 247.1-268.4 72.2c-0.7 0.4-1.4 0.4-2.2 0.4l-154.2 0c-0.7 0-1.4 0-2.2-0.4l-273.8-73.7L160.7 120.3c0-17-13.7-30.3-30.3-30.3s-30.3 13.7-30.3 30.3l0 237.3c-13.7 20.9-23.8 44.1-30.3 68.6-17 63.2-8.3 128.9 24.2 185.7 32.5 56.7 85.2 97.2 148.5 114.1 20.9 5.4 42.3 8.3 63.6 8.3 43.7 0 86.7-11.9 124.6-34.3 0.7-0.7 1.4-1.4 2.2-1.8 10.5-6.5 20.6-13.7 30-21.3 1.4-1.1 3.3-1.8 5.4-1.8l92.1 0c1.8 0 4 0.7 5.4 1.8 9.4 7.9 19.5 14.8 30 21.3 1.1 0.7 1.8 1.4 2.5 2.2 37.9 22.4 80.9 34.3 124.6 34.3 0 0 0 0 0 0 21.3 0 42.6-2.9 63.6-8.3 82.7-22.4 146.6-84.5 171.2-166.9 0 0 0.4-0.7 0.4-0.7 0.4-1.1 0.4-1.8 0.7-2.9l0.4-1.8c4.7-17 7.6-34.7 8.7-52 0-0.7-0.4-1.4 0-1.8C967.3 475.7 964.4 450.8 957.9 426.6zM897.9 504.2c0 1.4-0.4 2.9-0.4 4.3l-0.4 2.5c-11.2 88.5-86.7 155.3-175.9 155.3-47 0-91-18.1-124.3-51.3-1.1-0.4-2.2-1.1-2.9-1.8-2.5-2.5-4.7-5.1-6.9-7.6l-147.7 0c-2.2 2.5-4.7 5.1-6.9 7.6-0.7 0.7-1.4 1.4-2.5 1.8-33.6 33.2-77.7 51.3-124.6 51.3-92.1 0-169-71.2-176.6-162.5-0.4-0.7-0.4-1.4-0.4-2.2-1.1-19.1 0.7-38.6 5.8-57.1 0.4-1.8 1.1-3.3 1.4-4.7l0.7-1.8c1.1-3.6 4.3-5.8 7.9-5.8 0.7 0 1.4 0 2.2 0.4l291.1 78.4 152.1 0 291.1-78.4c0.7-0.4 1.4-0.4 2.2-0.4 3.6 0 6.9 2.2 7.9 5.8l0.7 1.8c0.4 1.4 1.1 3.3 1.4 4.7C897.6 463.8 899.7 484 897.9 504.2z" fill="#575B66" p-id="2127"></path><path d="M888.6 727.1c-24.6 69.4-91 118.5-167.2 118.5-47 0-91-18.1-124.3-51.3-1.1-0.4-2.2-1.1-2.9-1.8-2.5-2.5-4.7-5.1-6.9-7.6l-147.7 0c-2.2 2.5-4.7 5.1-6.9 7.6-0.7 0.7-1.4 1.4-2.5 1.8-33.6 33.2-77.7 51.3-124.6 51.3-76.2 0-142.7-49.1-167.2-118.5L67.2 727.1c5.4 22.4 14.1 44.1 26 64.7 32.5 56.7 85.2 97.2 148.5 114.1 20.9 5.4 42.3 8.3 63.6 8.3 43.7 0 86.7-11.9 124.6-34.3 0.7-0.7 1.4-1.4 2.2-1.8 10.5-6.5 20.6-13.7 30-21.3 1.4-1.1 3.3-1.8 5.4-1.8l92.1 0c1.8 0 4 0.7 5.4 1.8 9.4 7.9 19.5 14.8 30 21.3 1.1 0.7 1.8 1.4 2.5 2.2 37.9 22.4 80.9 34.3 124.6 34.3 0 0 0 0 0 0 21.3 0 42.6-2.9 63.6-8.3 82.7-22.4 146.6-84.5 171.2-166.9 0 0 0.4-0.7 0.4-0.7 0.4-1.1 0.4-1.8 0.7-2.9l0.4-1.8c0.7-2.2 1.1-4.3 1.8-6.9L888.6 727.1 888.6 727.1z" fill="#575B66" p-id="2128"></path></svg>