<svg xmlns="http://www.w3.org/2000/svg" viewBox="0 0 1024 1024" version="1.1"><path d="M896 256 607.9 256c-17.7 0-32-14.3-32-32 0-17.7 14.3-32 32-32l288 0c17.7 0 32 14.3 32 32C928 241.7 913.7 256 896 256z" fill="#575B66" p-id="990"></path><path d="M896 415.9 607.9 415.9c-17.7 0-32-14.3-32-32s14.3-32 32-32l288 0c17.7 0 32 14.3 32 32S913.7 415.9 896 415.9z" fill="#575B66" p-id="991"></path><path d="M896 672.1 607.9 672.1c-17.7 0-32-14.3-32-32s14.3-32 32-32l288 0c17.7 0 32 14.3 32 32S913.7 672.1 896 672.1z" fill="#575B66" p-id="992"></path><path d="M896 832 607.9 832c-17.7 0-32-14.3-32-32s14.3-32 32-32l288 0c17.7 0 32 14.3 32 32S913.7 832 896 832z" fill="#575B66" p-id="993"></path><path d="M383.9 479.9 192 479.9c-53 0-96-43-96-96L96 192c0-53 43-96 96-96l192 0c53 0 96 43 96 96l0 192C479.9 436.9 436.9 479.9 383.9 479.9zM192 160c-17.5 0-32 14.4-32 32l0 192c0 17.5 14.4 32 32 32l192 0c17.5 0 32-14.4 32-32L415.9 192c0-17.5-14.4-32-32-32L192 160 192 160z" fill="#575B66" p-id="994"></path><path d="M383.9 928 192 928c-53 0-96-43-96-96L96 639.9c0-53 43-96 96-96l192 0c53 0 96 43 96 96l0 192C479.9 884.8 436.9 928 383.9 928zM192 607.9c-17.5 0-32 14.3-32 32l0 192c0 17.7 14.4 32 32 32l192 0c17.5 0 32-14.3 32-32L415.9 639.9c0-17.7-14.4-32-32-32L192 607.9 192 607.9z" fill="#575B66" p-id="995"></path></svg>