<svg xmlns="http://www.w3.org/2000/svg" viewBox="0 0 1024 1024" version="1.1"><path d="M430.2 956.9c-22.7 0-44-8.9-59.9-25.3l-68.1-70.2c-12.2-12.7-12-32.9 0.7-45.2 14.3-13.9 22.2-32.5 22.5-52.5 0.2-20-7.4-38.7-21.3-53-27.9-28.6-77.1-29.1-105.4-1.4-6 6-15.3 9.1-22.7 9.1-8.4-0.2-16.7-3.6-22.5-9.8l-67.9-70c-15.5-15.8-24.1-37-23.7-59.3 0.2-22.4 9.3-43.3 25.3-59L530.1 86.2c32.2-31.3 87.2-30.6 118.3 1.4l68.1 70.2c12.2 12.7 12 32.9-0.7 45.2-14.3 13.9-22.2 32.7-22.5 52.5s7.4 38.7 21.2 53c27.9 28.6 77.1 29.1 105.6 1.2 6-6 14.6-8.4 22.7-9.1 8.4 0.2 16.7 3.6 22.5 9.8l67.9 70.2c15.5 15.7 24.1 36.8 23.7 59.2-0.2 22.4-9.1 43.3-25.1 59L488.7 933C472.9 948.5 452.1 956.9 430.2 956.9zM367.8 837.2l48.3 49.9c7.2 7.4 20.3 7.6 27.9 0.2l443.5-434.5c3.8-3.8 5.8-8.6 6-13.9 0-5.2-1.9-10.1-5.7-13.8l-48.3-49.9c-21.3 12.9-45.8 19.6-71.2 19.6-37.7 0-72.9-14.8-99.3-41.8-25.8-26.5-39.9-61.4-39.4-98.4 0.3-26.1 7.7-51.1 21.5-72.6l-48.3-49.9c-7.2-7.4-20.3-7.6-27.9-0.2L131.4 566.4c-3.8 3.8-5.8 8.6-6 13.9 0 5.3 1.9 10.1 5.7 13.9l48.3 49.9c21.3-12.9 45.8-19.6 71.2-19.6 37.7 0 72.9 14.8 99.3 41.8 25.8 26.5 39.9 61.4 39.4 98.4C388.9 790.7 381.5 815.7 367.8 837.2z" fill="#575B66" p-id="1077"></path><path d="M354.2 583.1c-8.3 0-16.3-3.1-22.7-9.5-12.6-12.6-12.6-32.7 0-45.2l178.7-178.7c12.6-12.6 32.7-12.6 45.2 0 12.6 12.6 12.6 32.7 0 45.2L376.9 573.8C370.5 580 362.4 583.1 354.2 583.1z" fill="#575B66" p-id="1078"></path><path d="M449.8 678.8c-8.3 0-16.3-3.1-22.7-9.5-12.6-12.6-12.6-32.7 0-45.2L605.8 445.5c12.6-12.6 32.7-12.6 45.2 0 12.6 12.6 12.6 32.7 0 45.2L472.4 669.5C466.2 675.7 457.9 678.8 449.8 678.8z" fill="#575B66" p-id="1079"></path></svg>