<svg xmlns="http://www.w3.org/2000/svg" viewBox="0 0 1024 1024" version="1.1"><path d="M362.6 55.3 172.3 55.3c-61 0-110.5 49.5-110.5 110.5l0 190.7c0 61 49.5 110.5 110.5 110.5L379.3 467l94.3 0 0-94.3L473.5 165.8C473.5 104.7 423.7 55.3 362.6 55.3zM403.5 334.8 403.5 397.3 341.3 397.3 204.4 397.3c-40.5 0-73-32.9-73-73L131.5 198.3c0-40.5 32.9-73 73-73l126.1 0c40.5 0 73 32.9 73 73L403.5 334.8z" fill="#575B66" p-id="2002"></path><path d="M855.7 467c61 0 110.5-49.5 110.5-110.5L966.2 165.8c0-61-49.5-110.5-110.5-110.5l-190.7 0c-61 0-110.5 49.5-110.5 110.5l0 207 0 94.3 94.3 0L855.7 467zM624.5 334.8 624.5 198.3c0-40.5 32.9-73 73-73L823.5 125.3c40.5 0 73 32.9 73 73l0 126.1c0 40.5-32.9 73-73 73l-136.9 0-62.1 0L624.5 334.8z" fill="#575B66" p-id="2003"></path><path d="M172.3 548.3c-61 0-110.5 49.5-110.5 110.5l0 190.7c0 61 49.5 110.5 110.5 110.5l190.7 0c61 0 110.5-49.5 110.5-110.5l0-207 0-94.3L379.3 548.3 172.3 548.3zM403.5 680.5l0 136.9c0 40.5-32.9 73-73 73L204.4 890.4c-40.5 0-73-32.9-73-73l0-126.1c0-40.5 32.9-73 73-73l136.9 0 62.1 0L403.5 680.5z" fill="#575B66" p-id="2004"></path><path d="M855.7 548.3l-207 0-94.3 0 0 94.3 0 207c0 61 49.5 110.5 110.5 110.5l190.7 0c61 0 110.5-49.5 110.5-110.5l0-190.7C966.6 597.8 916.7 548.3 855.7 548.3zM896.5 817c0 40.5-32.9 73-73 73l-126.1 0c-40.5 0-73-32.9-73-73l0-136.9 0-62.1 62.1 0L823.5 618c40.5 0 73 32.9 73 73L896.5 817z" fill="#575B66" p-id="2005"></path></svg>