<svg xmlns="http://www.w3.org/2000/svg" viewBox="0 0 1024 1024" version="1.1"><path d="M383.9 479.9 192 479.9c-53 0-96-43-96-96L96 192c0-53 43-96 96-96l192 0c53 0 96 43 96 96l0 192C479.9 436.9 436.9 479.9 383.9 479.9zM192 160c-17.5 0-32 14.4-32 32l0 192c0 17.5 14.4 32 32 32l192 0c17.5 0 32-14.4 32-32L415.9 192c0-17.5-14.4-32-32-32L192 160 192 160z" fill="#575B66" p-id="949"></path><path d="M383.9 928 192 928c-53 0-96-43-96-96L96 639.9c0-53 43-96 96-96l192 0c53 0 96 43 96 96l0 192C479.9 884.8 436.9 928 383.9 928zM192 607.9c-17.5 0-32 14.3-32 32l0 192c0 17.7 14.4 32 32 32l192 0c17.5 0 32-14.3 32-32L415.9 639.9c0-17.7-14.4-32-32-32L192 607.9 192 607.9z" fill="#575B66" p-id="950"></path><path d="M832 928 639.9 928c-53 0-96-43-96-96l0-64c0-53 43-96 96-96l192 0c53 0 96 43 96 96l0 64C928 884.8 884.8 928 832 928zM639.9 736c-17.7 0-32 14.3-32 32l0 64c0 17.7 14.3 32 32 32l192 0c17.7 0 32-14.3 32-32l0-64c0-17.7-14.3-32-32-32L639.9 736 639.9 736z" fill="#575B66" p-id="951"></path><path d="M832 607.9 639.9 607.9c-53 0-96-43-96-96l0-319.9c0-53 43-96 96-96l192 0c53 0 96 43 96 96l0 319.9C928 564.9 884.8 607.9 832 607.9zM639.9 160c-17.7 0-32 14.4-32 32l0 319.9c0 17.5 14.3 32 32 32l192 0c17.7 0 32-14.4 32-32l0-319.9c0-17.5-14.3-32-32-32L639.9 160 639.9 160z" fill="#575B66" p-id="952"></path></svg>