<svg xmlns="http://www.w3.org/2000/svg" viewBox="0 0 1024 1024" version="1.1"><path d="M325.5 862.3" fill="#272636" p-id="1953"></path><path d="M882.1 862.3" fill="#272636" p-id="1954"></path><path d="M236 877.1" fill="#272636" p-id="1955"></path><path d="M960.2 877.1" fill="#272636" p-id="1956"></path><path d="M63.6 788.7" fill="#272636" p-id="1957"></path><path d="M958.5 788.7" fill="#272636" p-id="1958"></path><path d="M64.8 858.7" fill="#272636" p-id="1959"></path><path d="M959.5 858.7" fill="#272636" p-id="1960"></path><path d="M842 396.5l-296-295.9c-18.7-18.7-49.2-18.7-67.9 0l-295.9 296c-26.7 26.7-4.5 73.3 30.4 73.3l146.7 0 0 420.6c0 26 21 47.1 47.1 47.1l211.2 0c26 0 47.1-21 47.1-47.1L664.8 469.8 811.9 469.8C847.5 469.8 867.8 422.6 842 396.5z" fill="#575B66" p-id="1961"></path></svg>