<svg xmlns="http://www.w3.org/2000/svg" viewBox="0 0 1024 1024" version="1.1"><path d="M512 960c-247 0-448-201-448-448S265 64 512 64 960 265 960 512 759 960 512 960zM512 128c-211.7 0-384 172.3-384 384s172.3 384 384 384 384-172.3 384-384S723.7 128 512 128z" fill="#575B66" p-id="1618"></path><path d="M694.6 522.1c-12.5-12.6-33.4-12.6-46-0.1l-104.6 103.9L544 319.3c0-17.8-14.2-32.2-32-32.2-17.8 0-32 14.4-32 32.2l0 308.3-105.2-106.7c-12.5-12.6-32.7-12.7-45.3-0.3-12.6 12.5-12.7 32.9-0.2 45.5l159.4 161.1c6.3 6.3 14.6 9.6 22.9 9.6 8.2 0 16.4-3.2 22.6-9.3 0-0.1 0-0.1 0.1-0.1 0 0 0.1 0 0.1-0.1l160.2-159.7C707.1 555.1 707.1 534.7 694.6 522.1z" fill="#575B66" p-id="1619"></path></svg>