<svg xmlns="http://www.w3.org/2000/svg" viewBox="0 0 1024 1024" version="1.1"><path d="M896 704c-17.7 0-32 14.3-32 32l0 128L160 864l0-128c0-17.7-14.3-32-32-32s-32 14.3-32 32l0 160c0 17.7 14.3 32 32 32l768 0c17.7 0 32-14.3 32-32l0-160C928 718.3 913.7 704 896 704z" fill="#575B66" p-id="1565"></path><path d="M796.4 365.3 537.3 106c-6.4-6.4-14.7-9.5-23-9.4-1.1-0.1-2.1-0.6-3.2-0.6-4.7 0-9 1.1-13 2.9-4 1.5-7.9 3.9-11.1 7.1L227.6 365.1c-12.5 12.5-12.5 32.7-0 45.2 6.2 6.3 14.4 9.4 22.7 9.4 8.2 0 16.4-3.1 22.6-9.3l206.2-206.2 0 563.7c0 17.7 14.3 32 32 32s32-14.3 32-32L543.1 202.7l207.9 207.7c6.2 6.3 14.5 9.4 22.7 9.4s16.3-3.1 22.6-9.3C808.9 398.1 808.9 377.9 796.4 365.3z" fill="#575B66" p-id="1566"></path></svg>