<svg xmlns="http://www.w3.org/2000/svg" viewBox="0 0 1024 1024" version="1.1"><path d="M325.5 862.3" fill="#272636" p-id="1972"></path><path d="M882.1 862.3" fill="#272636" p-id="1973"></path><path d="M236 877.1" fill="#272636" p-id="1974"></path><path d="M960.2 877.1" fill="#272636" p-id="1975"></path><path d="M63.6 788.7" fill="#272636" p-id="1976"></path><path d="M958.5 788.7" fill="#272636" p-id="1977"></path><path d="M64.8 858.7" fill="#272636" p-id="1978"></path><path d="M959.5 858.7" fill="#272636" p-id="1979"></path><path d="M840.3 627.3l-296 295.9c-18.7 18.7-49.2 18.7-67.9 0l-295.9-296c-26.7-26.7-4.5-73.3 30.4-73.3l146.7 0L357.6 133.5c0-26 21-47.1 47.1-47.1l211.2 0c26 0 47.1 21 47.1 47.1l0 420.6L810.2 554.1C845.8 554.1 866.1 601.4 840.3 627.3z" fill="#575B66" p-id="1980"></path></svg>