<svg xmlns="http://www.w3.org/2000/svg" viewBox="0 0 1024 1024" version="1.1"><path d="M512 64c-247 0-448 201-448 448S265 960 512 960 960 759 960 512 759 64 512 64zM661.8 536l-160.3 158.5c-6.2 6.1-14.4 9.2-22.5 9.2-8.3 0-16.5-3.2-22.8-9.5-12.4-12.6-12.3-32.8 0.3-45.2l137.4-135.9-136.3-136.7c-12.5-12.5-12.4-32.8 0.1-45.2 12.5-12.5 32.8-12.4 45.2 0.1l158.9 159.4c0 0 0 0.1 0.1 0.1s0.1 0 0.1 0.1c2.9 3 5.1 6.4 6.6 10 0.1 0.1 0.2 0.3 0.3 0.4C673.6 512.8 671.2 526.6 661.8 536z" fill="#575B66" p-id="1653"></path></svg>