<svg xmlns="http://www.w3.org/2000/svg" viewBox="0 0 1024 1024" version="1.1"><path d="M512 960c-247 0-448-201-448-448S265 64 512 64 960 265 960 512 759 960 512 960zM512 128c-211.7 0-384 172.3-384 384s172.3 384 384 384 384-172.3 384-384S723.7 128 512 128z" fill="#575B66" p-id="1641"></path><path d="M733 501.2c-0-0.1-0.2-0.3-0.3-0.4-1.5-3.6-3.6-7.1-6.6-10-0-0-0.1-0-0.1-0.1-0-0-0-0.1-0.1-0.1l-158.9-159.4c-12.5-12.5-32.7-12.6-45.2-0.1-12.5 12.5-12.5 32.7-0.1 45.2l103.3 103.6L320 480c-17.7 0-32 14.3-32 32s14.3 32 32 32l306.8 0-106.1 105c-12.6 12.4-12.7 32.7-0.3 45.2 6.2 6.3 14.5 9.5 22.8 9.5 8.1 0 16.3-3.1 22.5-9.2l160.3-158.5C735.3 526.6 737.7 512.8 733 501.2z" fill="#575B66" p-id="1642"></path></svg>