<svg xmlns="http://www.w3.org/2000/svg" viewBox="0 0 1024 1024" version="1.1"><path d="M296.9 339.5c-3.6 9.4-5.4 19.5-5.4 30 0 46.2 37.6 83.8 83.8 83.8s83.8-37.6 83.8-83.8-37.6-83.8-83.8-83.8c-10.5 0-20.6 1.8-30 5.4L220.7 166.5c-13.4-13.4-35-13.4-48.4 0-13.4 13.4-13.4 35 0 48.4L296.9 339.5z" fill="#575B66" p-id="2151"></path><path d="M932.6 477.9 551.9 97.2c-47.3-47.3-124.3-47.3-171.6 0L331.6 145.9l0.4 0.4c-5.1 5.8-7.9 13-7.9 21.3 0 17.7 14.4 32.1 32.1 32.1 7.9 0 15.5-2.9 21.3-7.9l0.4 0.4L426.2 143c22-22 57.8-22 79.5 0L886.4 523.7c22 22 21.7 57.8 0 79.5l-277.4 277.4c-22 22-57.8 22-79.5 0L148.8 500.3c-22-22-21.7-57.8 0-79.5L197.6 372l-0.4-0.4c5.1-5.8 7.9-13 7.9-21.3 0-17.7-14.4-32.1-32.1-32.1-7.9 0-15.5 2.9-21.3 7.9l-0.4-0.4-48.8 48.8c-47.3 47.3-47.3 124.3 0 171.6l380.7 380.7c47.3 47.3 124.3 47.3 171.6 0l277.4-277.4C979.9 602.1 979.9 525.2 932.6 477.9z" fill="#575B66" p-id="2152"></path></svg>