<svg xmlns="http://www.w3.org/2000/svg" viewBox="0 0 1024 1024" version="1.1"><path d="M571 398.9c-0.5-1.5-1.3-2.7-2.3-3.8-1.3-1.3-3.1-2.3-5.1-2.6l-248-30.1c-4.3-0.7-8.6 1.6-10.2 5.7-1.5 3.6-0.6 7.6 2 10.2 0.4 0.4 0.8 0.7 1.2 1l158.5 120c3.7 2.7 8.9 2.2 12.1-1l89.5-89.8C571.2 405.9 572 402.2 571 398.9z" fill="#575B66" p-id="2049"></path><path d="M689.2 734.3l-26.3-217.5c-0.3-2.1-1.2-4.1-2.7-5.5-1-1-2.2-1.8-3.6-2.2-3.4-1.2-7.2-0.3-9.7 2.3l-76.8 77.1c-3.3 3.3-3.7 8.4-0.9 12.2l103.1 140.4c0.3 0.4 0.6 0.8 0.9 1.1 2.6 2.6 6.6 3.5 10.1 2.1C687.3 742.5 689.7 738.5 689.2 734.3z" fill="#575B66" p-id="2050"></path><path d="M471.1 730l-20.7-143.4c1.2-2.3 1.5-4.9 0.6-7.4-0.5-1.4-1.3-2.6-2.3-3.7-0.4-0.4-0.8-0.7-1.2-1-0.3-0.4-0.6-0.8-1-1.2-1-1-2.3-1.8-3.7-2.3-2.5-0.8-5.2-0.6-7.4 0.6l-143.5-20.2c-4.3-0.6-8.4 1.8-10 5.8-1.4 3.5-0.6 7.5 2.1 10.2 0.3 0.3 0.7 0.6 1.1 0.9l97.5 71.2 71.5 97.3c0.3 0.4 0.6 0.8 0.9 1.1 2.6 2.6 6.6 3.5 10.2 2C469.4 738.4 471.7 734.3 471.1 730z" fill="#575B66" p-id="2051"></path><path d="M375.3 583.3l275.5-276.4c17.6-17.6 46.1-17.7 63.7-0.1l0 0c17.6 17.6 17.7 46.1 0.1 63.7l-275.5 276.4" fill="#575B66" p-id="2052"></path><path d="M375.3 583.3l275.5-276.4c17.6-17.6 46.1-17.7 63.7-0.1l0 0c17.6 17.6 17.7 46.1 0.1 63.7l-275.5 276.4" fill="#575B66" p-id="2053"></path><path d="M833 832.6c-6.9 6.7-14.1 13.3-21.4 19.7-44.7 38.7-95.6 67.5-151 86.2-57.5 19.4-117.6 27.1-178.8 22.6-61.1-4.5-119.5-20.8-173.5-48.5-52.1-26.7-98.1-62.9-136.7-107.6s-67.5-95.6-86.2-151c-19.4-57.5-27.1-117.6-22.6-178.8 4.5-61.1 20.8-119.5 48.5-173.5C133.5 258.3 162.6 218.8 197.5 184.7c6.9-6.7 14.1-13.3 21.4-19.7 44.6-38.5 95.6-67.5 151.1-86.4 57.5-19.4 117.6-27.1 178.8-22.6 72.3 5.3 140.8 27.9 203.7 66.4l0.1 0.1 0.1 0.1c10.4 5.5 16.6 16.5 15.9 28-0.6 7-3.6 13.8-8.6 18.8-6 5.9-14.2 8.8-22.7 8.3-2.6-0.2-4.7-0.9-6.6-1.5l-0.4-0.1-1.3-0.1-1.9-1.2c-53.5-33.6-114-53.1-179.6-57.7-104.8-7.5-206.2 26-285.3 94.5-6.3 5.4-12.5 11.1-18.4 16.8C209.6 261.5 182.2 300.2 162.4 342.9c-19.9 42.8-31.9 88.9-35.5 136.7-7.7 104.5 25.7 205.9 94.4 285.2 68.4 79.3 164 127.4 268.5 135.1 104.4 7.9 205.9-25.7 285.3-94.2 6.3-5.4 12.5-11.1 18.4-16.8 34.1-33.3 61.5-71.9 81.3-114.6 19.9-42.8 31.9-88.9 35.5-136.7 6-83.6-14.3-165.5-59.2-237.3l-0.1-0.4-0.2-0.2c-4.2-5.3-6.3-11.9-6.2-18.9 0-0.2 0-0.5 0-0.5 0-0.2 0-0.5 0-0.7 0.6-7 3.7-13.7 8.8-18.8 5.4-5.3 12.5-8.4 19.9-8.4 7.5-0.2 15 2.8 21.1 8.8 0.6 0.6 1.1 1.4 1.6 1.8 54.5 84.3 79.3 180.8 71.9 279-4.5 60.9-20.8 119.2-48.5 173.5C896.9 759 867.9 798.4 833 832.6z" fill="#575B66" p-id="2054"></path></svg>