<svg xmlns="http://www.w3.org/2000/svg" viewBox="0 0 1024 1024" version="1.1"><path d="M512 66c-245.9 0-446 200.1-446 446 0 246 200.1 446 446 446S958 758 958 512C958 266.1 758 66 512 66zM727.2 438.4 471 697.4c-0.1 0.1-0.2 0.1-0.3 0.2-0.1 0.1-0.1 0.2-0.2 0.3-2 2-4.6 3.2-6.9 4.5-1.2 0.7-2.1 1.7-3.4 2.2-3.8 1.5-7.9 2.3-12 2.3-4.1 0-8.2-0.8-12.1-2.4-1.3-0.5-2.3-1.6-3.5-2.3-2.4-1.3-4.8-2.5-6.9-4.5-0.1-0.1-0.1-0.2-0.2-0.3-0.1-0.1-0.2-0.1-0.3-0.2l-126-129.5c-12.3-12.7-12-32.9 0.6-45.2 12.7-12.3 32.9-12.1 45.2 0.6l103.3 106.1 233.3-235.8c12.4-12.6 32.7-12.7 45.2-0.3C739.5 405.6 739.6 425.9 727.2 438.4z" fill="#575B66" p-id="758"></path></svg>