<svg xmlns="http://www.w3.org/2000/svg" viewBox="0 0 1024 1024" version="1.1"><path d="M647.3 265.1 181.7 265.1c-66.8 0-121.4 54.5-121.4 121.4l0 392.3c0 66.8 54.5 121.4 121.4 121.4l465.2 0c66.8 0 121.4-54.5 121.4-121.4L768.3 386.5C768.6 319.3 714.1 265.1 647.3 265.1zM181.7 330.1l465.2 0c31.1 0 56.3 25.3 56.3 56.3l0 126.1-577.9 0L125.3 386.5C125.7 355.4 151 330.1 181.7 330.1zM647.3 834.7 181.7 834.7c-31.1 0-56.3-25.3-56.3-56.3l0-197.6 577.9 0 0 197.6C703.6 809.8 678 834.7 647.3 834.7z" fill="#575B66" p-id="2016"></path><path d="M383.6 674 237.7 674c-18.8 0-34.3 15.2-34.3 34.3 0 18.8 15.2 34.3 34.3 34.3l146.3 0c18.8 0 34.3-15.2 34.3-34.3C417.9 689.2 402.7 674 383.6 674z" fill="#575B66" p-id="2017"></path><path d="M593.5 674l-56 0c-18.8 0-34.3 15.2-34.3 34.3 0 18.8 15.2 34.3 34.3 34.3l56 0c18.8 0 34.3-15.2 34.3-34.3C627.4 689.2 612.2 674 593.5 674z" fill="#575B66" p-id="2018"></path><path d="M844.5 54.2 379.3 54.2c-66.8 0-121.4 54.5-121.4 121.4l0 25.3 65 0 0-25.3c0-31.1 25.3-56.3 56.3-56.3l465.2 0c31.1 0 56.3 25.3 56.3 56.3l0 392.3c0 31.1-25.3 56.3-56.3 56.3l-19.9 0 0 65 19.9 0c66.8 0 121.4-54.5 121.4-121.4L965.8 175.5C966.2 108.7 911.7 54.2 844.5 54.2z" fill="#575B66" p-id="2019"></path></svg>