<svg xmlns="http://www.w3.org/2000/svg" viewBox="0 0 1024 1024" version="1.1"><path d="M777.3 776c1-0.5 1.9-0.7 2.8-1 0.7-0.2 1.5-0.3 2.8-0.3 1.5 0 3.3 0.5 5.3 1.4" fill="#272636" p-id="1259"></path><path d="M235.5 776c-3.8 2.1-7.4 6.2-10.7 12.4-3.3 6.2-6.2 13.9-8.6 23.2-2.4 9.3-4.3 19.6-5.7 31.5-1.4 11.7-2.1 24.3-2.1 37.5 0 8.6 0.3 16.7 1 24.6s1.5 15.3 2.6 22.5l57.1 0c2.6-14.1 3.8-29.9 3.8-47.1 0-13.2-0.7-25.8-2.1-37.5-1.4-11.7-3.3-22.2-5.7-31.5-2.4-9.3-5.3-17-8.6-23.2s-6.9-10.5-10.7-12.4" fill="#575B66" p-id="1260"></path><path d="M777.3 776c-3.8 2.1-7.2 6.2-10.5 12.4s-6 13.9-8.4 23.2-4.3 19.6-5.5 31.5c-1.2 11.7-1.9 24.3-1.9 37.5 0 8.6 0.2 16.7 0.9 24.6s1.4 15.3 2.4 22.5l57.1 0c1-7.2 1.9-14.6 2.6-22.5s1-16 1-24.6c0-13.2-0.7-25.8-2.1-37.5-1.4-11.7-3.3-22.2-5.7-31.5-2.4-9.3-5.3-17-8.4-23.2-3.1-6.2-6.7-10.5-10.5-12.4" fill="#575B66" p-id="1261"></path><path d="M246 776c12.9 0.7 25.1 4 36.5 9.6s21.3 13.2 29.8 22.7c8.4 9.5 15 20.3 19.8 32.7 4.8 12.4 7.2 25.5 7.2 39.4 0 17.2-3.8 33.2-11.2 47.5l367.1 0c-7.2-14.6-10.8-30.4-10.8-47.5 0-13.9 2.4-27 7.2-39.4 4.8-12.4 11.5-23.2 19.8-32.7 8.4-9.5 18.2-17 29.6-22.7 11.4-5.7 23.4-8.9 36.3-9.6L246 776zM540 871.6l-10.1 15.5c-2.4 3.1-4.5 6.2-6.7 9.5-2.1 3.1-4 5.8-5.3 8.1-0.3 0.5-1 1-1.7 1.5-0.7 0.5-2.2 0.9-4.3 0.9s-3.4-0.3-4.1-0.9c-0.7-0.5-1.2-1-1.5-1.5-1.7-2.2-3.6-5-5.7-8.1l-6.4-9.5-10.5-15.5c-2.6-3.6-2.8-6.7-0.9-9.5 2.1-2.8 5.7-4 11-4l36.5 0c5.5 0 9.3 1.4 11.2 4C543 864.9 542.7 868 540 871.6z" fill="#575B66" p-id="1262"></path><path d="M788.2 776c12.9 0.7 24.9 4 36.3 9.6s21.2 13.2 29.8 22.7c8.4 9.5 15.1 20.3 20 32.7 4.8 12.4 7.2 25.5 7.2 39.4 0 8.6-1 16.7-2.9 24.8s-4.6 15.5-8.3 22.7l87 0 0-115.8-0.3 0 0-72.1L956.9 739.7l0-3.1c-0.2-10.1-0.9-21.2-1.9-33.4-1-12-2.9-23.9-5.8-35.4-2.9-11.5-6.7-22-11.7-31.5-5-9.5-11.4-16.7-19.3-21.3-8.9-5.7-17.5-7.7-26-6.4-8.4 1.4-16.2 4.1-23 8.3-6.9 4.1-12.7 8.8-17.5 13.8-4.8 5-8.1 8.6-9.6 10.7-11.9 14.1-24.1 28.7-36.6 43.7s-26.5 28.6-41.6 40.9-31.8 22.5-50.2 30.4c-18.2 7.9-39 11.9-62.1 11.9l-22.2 0-117.5 0-0.3 0L393.9 768.2l-21.8 0c-23.2 0-44-4-62.4-11.9-18.2-7.9-34.9-18.1-50.1-30.4s-28.9-26-41.6-40.9c-12.7-15-24.9-29.4-36.8-43.7-1-1.4-2.9-3.4-5.3-6.2-2.6-2.8-5.7-5.8-9.3-9.1-3.6-3.3-7.7-6.4-12.4-9.3-4.6-2.9-9.6-5.2-15-6.5-5.3-1.5-10.8-1.9-16.7-1.4s-11.7 2.6-17.5 6.2c-7.9 4.6-14.1 11.9-19.1 21.3-4.8 9.5-8.8 20-11.5 31.5-2.9 11.5-4.8 23.2-5.8 35.4-1 12-1.7 23.2-1.9 33.4-0.2 0.5-0.3 1.4-0.3 3.1l0 0.3 0 72.1 0 115.8 86.7 0c-3.4-7.2-6-14.8-7.9-22.7-1.9-7.9-2.9-16.2-2.9-24.8 0-13.9 2.4-27 7.2-39.4 4.8-12.4 11.5-23.2 20-32.7 8.4-9.5 18.4-17 29.8-22.7 11.4-5.7 23.4-8.9 36.3-9.6" fill="#575B66" p-id="1263"></path><path d="M235.5 776c1-0.5 2.1-0.7 2.9-1 0.9-0.2 1.7-0.3 2.6-0.3 1 0 1.9 0.2 2.8 0.3 0.7 0.2 1.5 0.5 2.4 1" fill="#272636" p-id="1264"></path><path d="M928 575.9c-17.7 0-32-14.3-32-32L896 192.1c0-17.4-14.6-32.2-32-32.2L160 160c-17.5 0-32 14.4-32 32.2l0 351.9c0 17.7-14.3 32-32 32s-32-14.3-32-32L64 192.1c0-53 43-96.2 96-96.2l704.1 0c53 0 96 43.2 96 96.2l0 351.9C960 561.6 945.7 575.9 928 575.9z" fill="#575B66" p-id="1265"></path><path d="M511.9 480.1c-123.5 0-224-100.5-224-224 0-17.7 14.3-32 32-32s32 14.3 32 32c0 88.2 71.7 160 160 160s160-71.7 160-160c0-17.7 14.3-32 32-32s32 14.3 32 32C736 379.6 635.4 480.1 511.9 480.1z" fill="#575B66" p-id="1266"></path></svg>