<svg xmlns="http://www.w3.org/2000/svg" viewBox="0 0 1024 1024" version="1.1"><path d="M868.3 886.4c0-0.4 0-0.7-0.4-1.1L722 334.8l33.6-204.1c3.3-19.1-1.4-38.6-13.7-53.1-12.3-14.4-30.3-22.4-49.8-22.4l-87 0c-6.5 0-12.6 4.3-14.4 10.8l-18.8 67.5c0 0.4-0.4 1.1-0.4 1.4-0.7 4.3-6.9 9.4-11.2 9.4l-105.8 0c-4.7 0-10.5-4.7-11.2-9.4 0-0.4 0-0.7-0.4-1.1l-17.3-67.5c-1.8-6.5-7.6-11.2-14.4-11.2l-92.8 0c-19.5 0-37.6 8.3-49.8 22.4-12.3 14.4-17.3 33.6-13.7 52.7l33.6 204.1L155.7 885.7c0 0.4 0 0.7-0.4 1.1-3.3 19.1 1.8 38.6 13.7 52.7 11.9 14.4 30.3 22.8 49.8 22.8l585.9 0c19.5 0 37.6-8.3 49.8-22.4C866.9 925 871.9 905.9 868.3 886.4zM355.8 342.4c0.7-2.2 0.7-4.3 0.4-6.5l-35.4-214.2 51.3 0 6.5 25.3c6.5 35.8 39.7 63.6 76.2 63.6l105.8 0c36.5 0 69.7-27.8 76.2-63.6l6.9-25.3 47 0-35 212c-0.7 2.5-1.1 5.4-0.4 8.3L802.9 895.8l-581.5 0L355.8 342.4z" fill="#575B66" p-id="2139"></path><path d="M413.9 884.2" fill="#272636" p-id="2140"></path></svg>