<svg xmlns="http://www.w3.org/2000/svg" viewBox="0 0 1024 1024" version="1.1"><path d="M190.6 960.5c-17.7 0-32-14.3-32-32 0-69.5 82.1-119.7 226.4-139.8l0-9.6c-97.9-75-97.9-214-97.9-298.6 0-139.7 82.2-223.1 219.8-223.1l7.4 0c137.6 0 219.8 83.4 219.8 223.1 0 10.3-0.2 20.6-0.3 31.3-0.5 17.7-15 31.7-32.9 31.1-17.7-0.5-31.7-15.1-31.1-32.9 0.3-10 0.3-19.8 0.3-29.6 0-105.6-52.5-159.1-155.8-159.1l-7.4 0c-103.4 0-155.8 53.5-155.8 159.1 0 102.2 6.4 206.2 83.1 255.1 9.3 5.8 14.8 16 14.8 27L449 817.1c0 16.3-12.4 30.1-28.6 31.8-128.5 13.6-197.8 51.3-197.8 79.6C222.6 946.1 208.1 960.5 190.6 960.5z" fill="#575B66" p-id="976"></path><path d="M833.8 960.5c-17.7 0-32-14.3-32-32 0-28.6-69.3-66.1-197.8-79.6-16.3-1.7-28.7-15.5-28.7-31.8l0-54.7c0-17.7 14.3-32 32-32s32 14.3 32 32l0 26.3c144.3 20 226.4 70.4 226.4 139.8C865.7 946.1 851.5 960.5 833.8 960.5z" fill="#575B66" p-id="977"></path><path d="M612.2 673.4c-44 0-76.9-4.5-77.8-4.6-15.8-4.8-25.3-20.8-21.8-37.2 3.3-16.2 18.4-26.8 34.9-25.3 79.8 8.8 201.6 1.2 222.9-43.2 7.6-15.8 26.7-22.7 42.7-15 16 7.6 22.7 26.8 15 42.7C794.7 660.4 687.4 673.4 612.2 673.4z" fill="#575B66" p-id="978"></path><path d="M896 639.9c-17.7 0-32-14.3-32-32l0-111.8-42.8-15.3c-12.7-4.5-21.3-16.7-21.3-30.1 0-160.5-129.2-291.2-288-291.2-158.8 0-288 130.7-288 291.2 0 10.3-5 20-13.4 26l-18.6 13.2 0 118c0 17.7-14.3 32-32 32s-32-14.3-32-32l0-134.3c0-10.3 5-20 13.4-26l18.9-13.6C169.1 246 323.4 95.6 511.9 95.6c186.5 0 339.6 147.1 351.3 332.3l43.5 15.5c12.7 4.5 21.3 16.7 21.3 30.1l0 134.3C928 625.6 913.7 639.9 896 639.9z" fill="#575B66" p-id="979"></path></svg>