<svg xmlns="http://www.w3.org/2000/svg" viewBox="0 0 1024 1024" version="1.1"><path d="M608.9 671.7c-34.2 0-60.9-2.6-68.5-3.4-17.5-2.1-30.3-17.7-28.2-35.3 1.9-17.5 17.5-30.1 35.3-28.2 79.6 8.8 201.8 1.2 223.1-43.2 7.6-15.8 26.7-22.7 42.7-15 16 7.6 22.7 26.8 15 42.7C794.4 659.3 683.4 671.7 608.9 671.7z" fill="#575B66" p-id="963"></path><path d="M896 639.9c-17.7 0-32-14.3-32-32l0-110.3-42.8-15.3c-12.7-4.5-21.3-16.7-21.3-30.1 0-158.8-129.2-288-288-288-158.8 0-288 129.2-288 288 0 10.3-5 20-13.4 26l-18.6 13.2 0 116.3c0 17.7-14.3 32-32 32s-32-14.3-32-32l0-132.8c0-10.3 5-20 13.4-26l18.9-13.6c8.8-186.3 163.1-335.3 351.6-335.3C698.4 100.3 851.5 246 863.3 429.5l43.5 15.5c12.7 4.5 21.3 16.7 21.3 30.1l0 132.8C928 625.6 913.7 639.9 896 639.9z" fill="#575B66" p-id="964"></path><path d="M639.9 783.7 639.9 774.1c28-21.8 50.4-43 63.6-72.8-29.1 4.6-61.6 2.9-87.7 2.9-32 0-59.3 0.9-76-1-35.1-4-60.4-38.7-56.6-73.8 4-35.1 35.8-60.7 70.7-56.6 71.2 7.6 149.8-0.7 181.3-13.9 1.4-29.2 1-60 1-83.4 0-136.9-83.3-218.1-216.7-221-0.7 0-18.7 0-19.4 0-133.5 2.8-213.5 85-213.5 222.1 0 84.6 1.4 222.8 97.4 297.8l0 9.6c-128 20-226 72.6-226 142.1 0 17.7 14.8 34.2 32.5 34.2l628 0c17.7 0 39.9-16.5 39.9-34.2C858.5 856.3 768 803.8 639.9 783.7z" fill="#575B66" p-id="965"></path></svg>