<svg xmlns="http://www.w3.org/2000/svg" viewBox="0 0 1024 1024" version="1.1"><path d="M-473.5 981.7" fill="#272636" p-id="2076"></path><path d="M508.9 823.9c-14.1 0-25.3 11.6-25.3 25.3l0 81.6c0 14.1 11.6 25.3 25.3 25.3 14.1 0 25.3-11.6 25.3-25.3L534.2 848.8C534.6 835.1 523 823.9 508.9 823.9z" fill="#575B66" p-id="2077"></path><path d="M734.3 761c-4.7-4.7-11.2-7.2-17.7-7.2-6.9 0-13 2.5-18.1 7.6-4.7 4.7-7.6 11.2-7.6 18.1s2.5 13 7.6 18.1l57.8 57.8c4.7 4.7 11.2 7.6 18.1 7.6 6.9 0 13-2.5 18.1-7.6 9.8-9.8 9.8-26 0-35.8L734.3 761z" fill="#575B66" p-id="2078"></path><path d="M293.3 753.8c-6.9 0-13 2.5-18.1 7.6l-57.8 57.8c-4.7 4.7-7.6 11.2-7.6 18.1s2.5 13 7.6 18.1c4.7 4.7 11.2 7.6 18.1 7.6 6.9 0 13-2.5 17.7-7.2l57.8-57.8c9.8-9.8 9.8-26 0-35.8C306.3 756.4 300.2 753.8 293.3 753.8z" fill="#575B66" p-id="2079"></path><path d="M916.4 551.2c-1.8-101.9-41.5-198.7-112-272.7-70.1-73.7-164.3-118.5-265.1-126.1-2.5-0.4-4.7-2.5-4.7-5.1L534.6 84.5c0-14.1-11.6-25.3-25.3-25.3-14.1 0-25.3 11.6-25.3 25.3l0 62.8c0 2.5-2.2 5.1-4.7 5.1-100.8 7.6-195 52-265.1 126.1-70.4 74-110.2 170.8-112 272.7 0 0.4 0 0.7 0 0.7l0 62.5 199.7 0c2.2 0 4.3 1.4 5.1 4 23.8 92.5 107.3 157.1 202.6 157.1 95.7 0 178.8-64.7 202.6-157.1 0.7-2.2 2.5-4 5.1-4l199.7 0 0-62.5C916.4 551.9 916.4 551.6 916.4 551.2zM654.1 621.6c-22.8 60-81.3 100.4-145.2 100.4-63.9 0-122.4-40.5-145.2-100.4-0.7-1.4-0.4-3.3 0.7-4.7 1.1-1.4 2.5-2.2 4.3-2.2l281 0c1.8 0 3.3 0.7 4.3 2.2C654.5 618 654.9 619.8 654.1 621.6zM856 554.8c-1.1 1.1-2.2 1.4-3.6 1.4L165.8 556.2c-1.4 0-2.5-0.7-3.6-1.4-1.1-1.1-1.4-2.2-1.4-3.6 2.2-91.4 39.4-176.6 104.7-240.9 65.7-64.3 152.1-99.7 243.8-99.7s178.1 35.4 243.8 99.7c65.4 63.9 102.6 149.5 104.7 240.9C857.5 552.3 856.8 553.7 856 554.8z" fill="#575B66" p-id="2080"></path></svg>