<svg xmlns="http://www.w3.org/2000/svg" viewBox="0 0 1024 1024" version="1.1"><path d="M718.4 440.3l-268.7 268.7-133.6-139.1c-11.9-11.9-31.1-11.9-43 0-11.9 11.9-11.9 31.1 0 43l154.6 160.7c11.6 11.6 29.6 11.9 41.5 1.4 1.4-1.1 2.5-2.2 4-3.3l288.6-288.6c11.9-11.9 11.9-31.1 0-43C749.8 428.4 730.3 428.4 718.4 440.3z" fill="#575B66" p-id="2185"></path><path d="M796.4 195l-99 0c-22.8-81.3-97.5-140.9-185.7-140.9-88.5 0-162.9 60-185.7 140.9L227.2 195C179.5 195 140.9 233.7 140.9 281.4l0 594.9c0 47.7 38.6 86.3 86.3 86.3l569.3 0c47.7 0 86.3-38.6 86.3-86.3L882.8 281.4C882.8 233.7 844.1 195 796.4 195zM511.8 118.5c52.4 0 97.5 31.8 117.8 76.6l-235.1 0C414.3 149.9 459.4 118.5 511.8 118.5zM825.3 876.3c0 15.9-13 28.9-28.9 28.9L227.2 905.2c-15.9 0-28.9-13-28.9-28.9L198.3 281.4c0-15.9 13-28.9 28.9-28.9l91.7 0 0 86.7 65.7 0 0-86.7 255.7 0 0 0 0 86.7 65.7 0 0-86.7 90.3 0c15.9 0 28.9 13 28.9 28.9L825.3 876.3z" fill="#575B66" p-id="2186"></path></svg>