<svg xmlns="http://www.w3.org/2000/svg" viewBox="0 0 1024 1024" version="1.1"><path d="M891 98.4 649.9 98.4c-56.2 0-106.3 27.2-137.8 69-31.5-41.8-81.5-69-137.8-69L133 98.4c-38 0-69 31-69 69l0 637.5c0 38 31 69 69 69l253.4 0c33.9 33 78.8 51.6 125.7 51.6s91.9-18.6 125.7-51.6L891 873.8c38 0 69-31 69-69L960 167.4C960 129.4 929 98.4 891 98.4zM891 804.9 622.9 804.9c-10 0-19.6 4.3-26.1 12-21.5 25.1-52.5 39.6-84.6 39.6-32.2 0-63.1-14.4-84.6-39.6-6.5-7.7-16.2-12-26.1-12l-268.3 0L133 167.4l241.2 0c56.9 0 103.4 46.4 103.4 103.4l0 292.9c0 19.1 15.5 34.4 34.4 34.4 19.1 0 34.4-15.5 34.4-34.4L546.3 270.8c0-56.9 46.4-103.4 103.4-103.4L891 167.4 891 804.9z" fill="#575B66" p-id="1905"></path></svg>