<svg xmlns="http://www.w3.org/2000/svg" viewBox="0 0 1024 1024" version="1.1"><path d="M792.9 465.8c-6.2-6.2-14.4-9.3-22.6-9.3s-16.4 3.2-22.7 9.4L539.7 673.7 539.7 108.4c0-17.7-14.3-32-32-32s-32 14.3-32 32l0 563.7L269.5 465.9c-6.3-6.2-14.4-9.3-22.6-9.3-8.2 0-16.4 3.1-22.7 9.4-12.5 12.5-12.5 32.8 0 45.2l259.3 259.1c3.3 3.3 7.1 5.6 11.1 7.1 4 1.8 8.4 2.9 13 2.9 1.1 0 2.1-0.5 3.2-0.6 8.3 0.1 16.6-3 23-9.4L793 511.1C805.5 498.5 805.4 478.3 792.9 465.8z" fill="#575B66" p-id="1486"></path><path d="M892.6 875.5c0 17.7-14.3 32-32 32L156.6 907.5c-17.7 0-32-14.3-32-32 0-17.7 14.3-32 32-32l704 0C878.3 843.5 892.6 857.9 892.6 875.5z" fill="#575B66" p-id="1487"></path></svg>