<svg xmlns="http://www.w3.org/2000/svg" viewBox="0 0 1024 1024" version="1.1"><path d="M952.8 352.8c0-0.5-0.2-0.9-0.2-1.4-0.3-1.9-0.9-3.6-1.5-5.3L875.9 159.3c-12.9-38.5-48.9-62.6-93.9-62.6L255.4 96.7c-44.2 0-78.6 23.6-91 60.7L83.8 348c-0.3 1.2-0.9 2.8-1.2 4.5-5.8 18.1-8.8 36.5-8.8 55 0 65.2 35.8 124.7 93.2 155.3 23.6 12.7 51.4 19.1 82.7 19.1 0 0 0 0 0.2 0 52.5-0.2 101.1-23.2 134.3-62.6 33 39.2 81.2 62.1 133.7 62.4 51.9-0.3 100.1-23.4 133-62.6 33.2 39.6 81.9 62.4 134.7 62.4 32-0.2 60.2-6.9 84.1-20 56.6-31 91.7-90.1 91.7-154.6C961.4 388.2 958.3 369.7 952.8 352.8zM766.3 383.9 254.4 383.9c-17.7 0-32-14.3-32-32s14.3-32 32-32l512.1 0c17.7 0 32 14.3 32 32S784 383.9 766.3 383.9z" fill="#575B66" p-id="814"></path><path d="M895 639.9c0-17.7-14.3-32-32-32-3.3 0-6.2 0.9-9.3 1.9l0 0c-23.7 9.5-54 14.4-76.9 13.2-50.4-2.8-88.9-12.7-125.9-44.2-36.5 31.1-83.1 48.9-132.6 49.4-50.2-0.3-97.2-12.9-133.8-44.2-37 31.5-84.1 46.8-134.3 46.8l-0.2 0c-30.6 0-48-5.8-75.9-16.2-0.7-0.3-1.5-0.5-2.4-0.9-1.4-0.5-2.4-0.9-3.8-1.4 0 0-4.6-0.9-7.1-0.9 0 0 0 0 0 0-17.7 0-32 14.4-32 32l0.2 171.5c0 45.1 36.8 81.9 82.1 81.9l602.2-0.3c45.1-0.2 81.9-37 81.9-82.1L895 639.9z" fill="#575B66" p-id="815"></path></svg>