<svg xmlns="http://www.w3.org/2000/svg" viewBox="0 0 1024 1024" version="1.1"><path d="M952.8 352.8c0-0.5-0.2-0.9-0.2-1.4-0.3-1.9-0.9-3.6-1.5-5.3L875.9 159.3c-13.1-38.7-50.2-62.4-93.9-62.6L255.4 96.7c-44.2 0-78.6 23.6-91 60.7L83.8 348c-0.3 1.2-0.9 2.8-1.2 4.5-5.8 18.1-8.8 36.5-8.8 55 0 65.2 35.8 124.7 93.2 155.3 0 0 0 0 0 0s0 0 0 0l0 0c0 0 0 0 0 0 23.6 12.6 51.4 18.9 82.7 18.9 52.5-0.2 101.1-23.2 134.3-62.8 33 39.2 81.2 62.1 133.7 62.4 51.9-0.3 100.1-23.4 133-62.6 33.2 39.6 81.9 62.4 134.7 62.4 32-0.2 60.2-6.9 84.1-20 56.6-31 91.7-90.1 91.7-154.6C961.4 388.2 958.3 369.7 952.8 352.8zM839.1 505.4c-14.4 7.9-32.5 12-53.7 12-39 0-74.5-19.8-95.3-53.3-1.5-3.1-4-8.4-8.6-13.4-5.3-5.8-14.8-12.9-30.6-12.9-12.7 0-24.3 5.2-30.8 13.2-4.3 4.8-6.7 9.6-8.4 13.2-20.5 33.2-55.7 53.2-93.9 53.3-38.7-0.2-74-20.1-94.6-53.5-1.4-2.9-3.8-7.9-7.6-12-15-17.9-48.7-17-61.8-1.4-4.8 5.3-7.4 10.7-8.9 14.3-20.6 33.2-56.2 53-95 53.2-20.6 0-38.4-4-52.6-11.5l0 0c0 0 0 0 0 0-36.6-19.4-59.3-57.5-59.3-98.9 0-12.2 2.1-24.6 6.2-36.6 0.3-0.9 0.5-1.9 0.7-2.8l79.5-187.8c1.5-4.8 6.5-19.4 31.3-19.4l526.7 0c10.1 0.7 27.7 2.4 33.9 20.6l74.3 185.3c0.3 1.4 0.7 2.6 1 3.6 4.1 12 6.2 24.3 6.2 36.5C897.4 447.9 875 485.6 839.1 505.4z" fill="#575B66" p-id="826"></path><path d="M863 607.9c-17.7 0-32 14.3-32 32l0 174.6c0 10-8.1 18.1-18.1 18.1l-602 0.3c-10 0-18.1-8.1-18.1-17.9l-0.2-171.5c0-17.7-14.4-32-32-32 0 0 0 0 0 0-17.7 0-32 14.4-32 32l0.2 171.5c0 45.1 36.8 81.9 82.1 81.9l602.2-0.3c45.1-0.2 81.9-36.8 81.9-82.1l0-174.6C895 622.3 880.7 607.9 863 607.9z" fill="#575B66" p-id="827"></path><path d="M768 383.9 256 383.9c-17.7 0-32-14.3-32-32 0-17.7 14.3-32 32-32l511.9 0c17.7 0 32 14.3 32 32C800 369.7 785.6 383.9 768 383.9z" fill="#575B66" p-id="828"></path></svg>