<svg xmlns="http://www.w3.org/2000/svg" viewBox="0 0 1024 1024" version="1.1"><path d="M970.2 845.2C786 321.5 762.9 255 759.6 246.3l0 0c-3.6-12.6-15.9-21.7-28.9-21.7-13.4 0-25.3 9-28.9 21.7L572.1 614 388.7 86.3c-3.3-14.1-15.9-23.8-30-23.8-14.4 0-27.1 10.1-30.3 24.2L60 846.3c-1.8 2.5-2.9 5.8-2.9 8.7l0 35.4c0 8.3 6.9 15.2 15.2 15.2l886.4 0c8.3 0 15.2-6.9 15.2-15.2l0-35.4C973.8 851.3 972.3 848.1 970.2 845.2zM131.8 840.1 358.3 199l175.5 504.2c1.4 19.9 17.7 35.4 37.9 35.4 18.8 0 34.3-13.4 37.6-31.8l121.4-345.7 168 478.6L131.8 840.1z" fill="#575B66" p-id="2065"></path></svg>