<svg xmlns="http://www.w3.org/2000/svg" viewBox="0 0 1024 1024" version="1.1"><path d="M959.8 312.7c-0.2-14.3-0.2-20.1-0.3-26.8-0.3-20.1-1.7-40.4-5.2-58.7-3.8-19.8-8.8-37.8-17.9-55.9-9.3-18.2-22-34.1-35.8-48.2-14.1-13.8-29.9-26.5-48.2-35.8-18.1-9.1-36-14.1-55.7-17.9-18.1-3.4-38.5-4.6-58.7-5-6.7-0.2-12.6-0.2-26.8-0.3-13.6-0.2-24.6-0.2-32.9-0.2-41.6 0-291 0-332.7 0-8.3 0-19.3 0-32.9 0.2-14.3 0.2-20.1 0.2-26.8 0.3-20.1 0.3-40.4 1.7-58.7 5.2-19.8 3.8-37.8 8.8-55.9 17.9-18.2 9.3-34.1 22-48.2 35.8-13.8 14.1-26.5 29.9-35.6 48.2-9.1 18.1-14.1 36-17.9 55.9-3.4 18.1-4.8 38.5-5 58.7-0.2 6.7-0.2 12.6-0.3 26.8-0.2 13.6-0.2 24.8-0.2 33l0 332.7c0 8.3 0 19.3 0.2 32.9 0.2 14.3 0.2 20.1 0.3 26.8 0.3 20.1 1.5 40.4 5 58.7 3.8 19.8 8.8 37.8 17.9 55.9 9.3 18.2 21.8 34.1 35.6 48.2 14.1 13.8 29.9 26.5 48.2 35.8 18.1 9.1 36 14.1 55.7 17.9 18.2 3.4 38.5 4.6 58.7 5.2 6.7 0.2 12.6 0.2 26.8 0.3 13.6 0.2 24.8 0.2 32.9 0.2 41.6 0 291 0 332.7 0 8.3 0 19.3 0 32.9-0.2 14.3-0.2 20.1-0.2 26.8-0.3 20.1-0.3 40.4-1.7 58.7-5.2 19.8-3.8 37.8-8.8 55.7-17.9 18.2-9.3 34.1-22 48.2-35.8 13.8-14.1 26.5-29.9 35.8-48.2 9.1-18.1 14.1-36 17.9-55.9 3.4-18.1 4.6-38.5 5.2-58.7 0.2-6.7 0.2-12.6 0.3-26.8 0.2-13.6 0.2-24.8 0.2-32.9L959.8 345.6C960 337.5 960 326.3 959.8 312.7zM280.6 239.1c35.1 0 63.6 26 63.6 58.1s-28.6 58.1-63.6 58.1c-35.4 0-64-26.1-64-58.1C216.7 264.9 245.1 239.1 280.6 239.1zM333.7 588.5c-16.9 53-12.6 33.4-79.5 181.1l-96.7-61.4c0 0 108.2-99.9 130.2-145.7 23.6-48.2-26.1-73.8-26.1-73.8l-74.3-47 40.4-63c55.9 42.3 60 45.8 97.7 84.3C354.7 493.2 350.9 534.4 333.7 588.5zM860.6 657.4c-18.9 180.1-249.6 113-249.6 113l12.6-51.6 53.5 11.5c98.7 6.4 89.1-81.2 89.1-81.2L766.2 394.4c0.7-96.8-89.6-107-252-48l37.7 10.5c-3.1 11.2-15.3 28.9-31.1 48.2L737.9 405.1l0 44.7-122.1 0 0 55.7 121.8 0 0 44.7L615.8 550.3l0 93.4c18.4-6 35.3-14.4 49.9-25.6l-10.7-40.6 57.5-18.2 48 119L689.8 708.2l-12.6-47.5c-31.7 24.6-97.2 60.2-211.9 56.9-122.3 3.3-90.8-140.2-90.8-140.2l3.1-1.5 86.2 0c-0.7 18.4-8.1 48.5 2.1 64.8 8.4 13.4 29.9 15.7 43.5 16.5 1.5 0.2 3.3 0.2 4.6 0.2L514 550.4l-124.5 0 0-44.7 124.5 0 0-55.7L481.6 450c-28 30.1-53.7 55.2-53.7 55.2l-37.7-33.4c26.8-28.7 53.5-74.1 70-104.2-13.4 5.5-27.2 11.5-41.5 17.7-13.8 18.1-29.8 36.3-47.6 54.5 0.7 0.9-61.8-35.6-61.8-35.6 64.3-55.7 100.5-175.3 100.5-175.3l89.6 25.5c0 0-7.2 17.7-22.7 44.7 358.1-103 379.3 63.1 379.3 63.1S879.3 477.2 860.6 657.4z" fill="#575B66" p-id="1797"></path></svg>