<svg xmlns="http://www.w3.org/2000/svg" viewBox="0 0 1024 1024" version="1.1"><path d="M512 958c-245.9 0-446-200.1-446-446 0-245.9 200.1-446 446-446 246 0 446 200.1 446 446S758 958 512 958zM512 130c-210.7 0-382 171.4-382 382 0 210.6 171.4 382 382 382 210.6 0 382-171.4 382-382S722.6 130 512 130z" fill="#575B66" p-id="699"></path><path d="M464 304c0 26.5 21.5 48 48 48s48-21.5 48-48-21.5-48-48-48S464 277.5 464 304z" fill="#575B66" p-id="700"></path><path d="M512 768c-17.7 0-32-14.3-32-32L480 448c0-17.7 14.3-32 32-32s32 14.3 32 32l0 288C544 753.7 529.7 768 512 768z" fill="#575B66" p-id="701"></path></svg>