<svg xmlns="http://www.w3.org/2000/svg" viewBox="0 0 1024 1024" version="1.1"><path d="M288.5 288.8 83.1 288.8c-18.9 0-34.2-15.3-34.2-34.1s15.3-34.1 34.2-34.1l205.2 0c18.9 0 34.2 15.3 34.2 34.1S307.2 288.8 288.5 288.8L288.5 288.8zM280 626 83.1 626c-18.9 0-34.2-15.3-34.2-34.1 0-18.7 15.3-34.1 34.2-34.1l197 0c18.9 0 34.2 15.3 34.2 34.1C314.3 610.7 299 626 280 626L280 626zM239.6 457l-156.5 0c-18.9 0-34.2-15.3-34.2-34.2 0-18.9 15.3-34.2 34.2-34.2l156.5 0c18.9 0 34.2 15.3 34.2 34.2C273.8 441.7 258.5 457 239.6 457L239.6 457zM460 801.1l-376.7 0c-18.9 0-34.2-15.3-34.2-34.2S64.3 732.8 83.3 732.8l376.7 0c18.9 0 34.2 15.3 34.2 34.2C494.2 785.8 478.9 801.1 460 801.1L460 801.1z" fill="#575B66" p-id="1212"></path><path d="M420.7 426.1c0-115.8 94.4-210 210.5-210s210.5 94.1 210.5 210S747.4 636.1 631.3 636.1 420.7 541.8 420.7 426.1L420.7 426.1 420.7 426.1zM967.8 816.2l-147.4-192.5c52.3-49.9 85.1-119.9 85.1-197.5 0-150.7-123-273.3-274.2-273.3s-274.2 122.6-274.2 273.3 123 273.3 274.2 273.3c48.7 0 94.3-12.9 134-35.1l147.9 193.2c6.7 8.8 17 13.6 27.2 13.6 7.2 0 14.6-2.2 20.6-7.1C976.4 852.5 979.1 831 967.8 816.2L967.8 816.2 967.8 816.2zM778.7 424.9c0 81-65.7 146.6-146.6 146.6s-146.6-65.7-146.6-146.6 65.7-146.6 146.6-146.6S778.7 344 778.7 424.9z" fill="#575B66" p-id="1213"></path></svg>