<svg xmlns="http://www.w3.org/2000/svg" viewBox="0 0 1024 1024" version="1.1"><path d="M967.9 816.2l-147.4-192.5c52.3-49.9 85.1-119.7 85.1-197.5 0-150.7-123-273.3-274-273.3-151.2 0-274 122.6-274 273.3s123 273.3 274 273.3c48.7 0 94.3-12.9 134-35.1l147.9 193.2c6.7 8.8 16.9 13.4 27.4 13.4 7.2 0 14.6-2.2 20.6-7.1C976.5 852.5 979.4 831.2 967.9 816.2L967.9 816.2zM421.1 426.3c0-115.8 94.4-209.9 210.5-209.9s210.5 94.1 210.5 209.9-94.4 209.9-210.5 209.9S421.1 542 421.1 426.3L421.1 426.3zM288.5 288.8 83.3 288.8c-18.9 0-34.2-15.3-34.2-34.1s15.3-34.1 34.2-34.1l205.2 0c18.9 0 34.2 15.3 34.2 34.1C322.7 273.5 307.4 288.8 288.5 288.8L288.5 288.8zM280.2 626.1 83.3 626.1c-18.9 0-34.2-15.3-34.2-34.1s15.3-34.1 34.2-34.1l197 0c18.9 0 34.2 15.3 34.2 34.1C314.4 610.8 299.1 626.1 280.2 626.1L280.2 626.1zM239.8 457l-156.5 0c-18.9 0-34.2-15.3-34.2-34.2 0-18.9 15.3-34.2 34.2-34.2l156.5 0c18.9 0 34.2 15.3 34.2 34.2C273.8 441.7 258.5 457 239.8 457L239.8 457zM460.1 801.2 83.3 801.2c-18.9 0-34.2-15.3-34.2-34.2s15.3-34.2 34.2-34.2l376.9 0c18.9 0 34.2 15.3 34.2 34.2C494.4 785.9 479.1 801.2 460.1 801.2L460.1 801.2z" fill="#575B66" p-id="1224"></path></svg>