<svg xmlns="http://www.w3.org/2000/svg" viewBox="0 0 1024 1024" version="1.1"><path d="M570 96l-6.2 0c-157.2 0-275.8 112.5-275.8 261.6l0 122.4 0 64 0 242.7-105-106.1c-12.4-12.6-32.7-12.7-45.2-0.3-12.6 12.4-12.7 32.7-0.3 45.2l158.5 160.3c6.2 6.3 14.5 9.5 22.8 9.5 8.1 0 16.3-3.1 22.5-9.2 0-0 0-0.1 0.1-0.1 0-0 0.1-0 0.1-0.1l159.4-158.9c12.5-12.5 12.5-32.7 0.1-45.2-12.5-12.6-32.7-12.5-45.2-0.1l-103.6 103.3L352 544l0-64 0-122.4c0-112.7 91.1-197.6 211.8-197.6l6.2 0c116.6 0 198 81.3 198 197.6l0 506.4c0 17.7 14.3 32 32 32s32-14.3 32-32L832 357.6C832 206 721.8 96 570 96z" fill="#575B66" p-id="803"></path></svg>