<svg xmlns="http://www.w3.org/2000/svg" viewBox="0 0 1024 1024" version="1.1"><path d="M447.9 928c-1.2 0-2.4-0.2-3.4-0.2L157.9 896c-51.9-1-93.9-43.7-93.9-96L64 192c0-53 43.2-96 96-96 1.2 0 2.4 0.2 3.4 0.2l286.6 31.8c51.9 1 93.9 43.7 93.9 96l0 607.9C543.9 884.8 500.9 928 447.9 928zM158.4 160c-17 0.9-30.4 14.8-30.4 32l0 607.9c0 17.7 14.4 32 32 32 1.2 0 2.4 0.2 3.4 0.2l286.1 31.8c17-0.9 30.4-14.8 30.4-32L479.9 224c0-17.5-14.4-32-32-32-1.2 0-2.4-0.2-3.4-0.2L158.4 160z" fill="#575B66" p-id="893"></path><path d="M609.1 924.2c-16.2 0-29.9-12-31.8-28.6-2.1-17.5 10.7-33.4 28.4-35.3l254.8-28.4c1.2-0.2 2.2-0.2 3.4-0.2 17.7 0 32-14.3 32-32L895.8 192c0-17.2-13.6-31.1-30.4-32l-253 28c-17.2 2.1-33.4-10.7-35.3-28.4-2.1-17.5 10.7-33.4 28.4-35.3l255.1-28.4c1-0.2 2.2-0.2 3.4-0.2 53 0 96 43.2 96 96L960 799.9c0 52.3-42 95-93.9 96l-253.2 28.2C611.5 924.2 610.3 924.2 609.1 924.2z" fill="#575B66" p-id="894"></path><path d="M408 358l-208.1 0c-17.7 0-32-14.3-32-32 0-17.7 14.3-32 32-32l208.1 0c17.7 0 32 14.3 32 32C440 343.5 425.7 358 408 358z" fill="#575B66" p-id="895"></path><path d="M407.8 542.5 199.5 542.5c-17.7 0-32-14.3-32-32 0-17.7 14.3-32 32-32l208.1 0c17.7 0 32 14.3 32 32C439.8 528.3 425.6 542.5 407.8 542.5z" fill="#575B66" p-id="896"></path><path d="M408 726.4l-208.1 0c-17.7 0-32-14.3-32-32 0-17.7 14.3-32 32-32l208.1 0c17.7 0 32 14.3 32 32C440 712.1 425.7 726.4 408 726.4z" fill="#575B66" p-id="897"></path><path d="M823.9 358.8 615.8 358.8c-17.7 0-32-14.3-32-32 0-17.7 14.3-32 32-32l208.1 0c17.7 0 32 14.3 32 32C855.9 344.5 841.7 358.8 823.9 358.8z" fill="#575B66" p-id="898"></path><path d="M823.9 543.6l-208.1 0c-17.7 0-32-14.3-32-32 0-17.7 14.3-32 32-32l208.1 0c17.7 0 32 14.3 32 32C855.9 529.1 841.5 543.6 823.9 543.6z" fill="#575B66" p-id="899"></path><path d="M823.9 727.4 615.8 727.4c-17.7 0-32-14.3-32-32s14.3-32 32-32l208.1 0c17.7 0 32 14.3 32 32S841.7 727.4 823.9 727.4z" fill="#575B66" p-id="900"></path></svg>