<svg xmlns="http://www.w3.org/2000/svg" viewBox="0 0 1024 1024" version="1.1"><path d="M332.3 162.4c-12-5-25.7-2.2-34.9 6.9L105.4 361.4c-12.5 12.5-12.5 32.7 0 45.2s32.7 12.5 45.2 0l137.4-137.4 0 530.8c0 17.7 14.3 32 32 32s32-14.3 32-32L352 192C352 179.1 344.2 167.4 332.3 162.4z" fill="#575B66" p-id="1438"></path><path d="M918.6 617.4c-12.5-12.5-32.7-12.5-45.2 0l-105.4 105.4L768 192c0-17.7-14.3-32-32-32s-32 14.3-32 32l0 608c0 12.9 7.8 24.6 19.7 29.6 4 1.7 8.1 2.4 12.3 2.4 8.3 0 16.5-3.3 22.6-9.4l160-160C931.1 650.1 931.1 629.9 918.6 617.4z" fill="#575B66" p-id="1439"></path></svg>