<svg xmlns="http://www.w3.org/2000/svg" viewBox="0 0 1024 1024" version="1.1"><path d="M511.9 67.4c-81 0-159.3 21.5-228.3 62.4-38.5-42.3-94.6-66.1-158.4-66.1-11.7 0-22.4 6.4-28 16.7-5.7 10.3-5.2 22.7 1 32.5 0.3 0.5 31.1 49.7 40.9 128.2-8.1 27.4-26.7 65.2-37.5 94.3-22.9 62.4-37.5 116.5-37.5 179.6 0 246.8 200.9 447.8 447.8 447.8s447.8-200.9 447.8-447.8C959.7 268.3 758.9 67.4 511.9 67.4zM575.9 479.9c0 26.5-21.5 48-48 48S479.9 506.4 479.9 479.9l0-64c0-26.5 21.5-48 48-48s48 21.5 48 48L575.9 479.9zM767 479.9c0 26.5-21.5 48-48 48s-48-21.5-48-48l0-64c0-26.5 21.5-48 48-48s48 21.5 48 48L767 479.9z" fill="#575B66" p-id="1311"></path></svg>