<svg xmlns="http://www.w3.org/2000/svg" viewBox="0 0 1024 1024" version="1.1"><path d="M527.9 527.9c-26.5 0-48-21.5-48-48l0-64c0-26.5 21.5-48 48-48 26.5 0 48 21.5 48 48L575.9 479.9C575.9 506.6 554.4 527.9 527.9 527.9z" fill="#575B66" p-id="1322"></path><path d="M719 527.9c-26.5 0-48-21.5-48-48l0-64c0-26.5 21.5-48 48-48s48 21.5 48 48L767 479.9C767 506.6 745.5 527.9 719 527.9z" fill="#575B66" p-id="1323"></path><path d="M511.9 67.6c-81.2 0-159.5 21.7-228.4 62.8-38.5-42.3-94.4-66.2-158.3-66.2-11.7 0-22.4 6.4-28 16.5-5.7 10.1-5.3 22.7 0.9 32.5 0.3 0.5 33.5 54.4 42 136.8 1.7 16.5 15.7 28.7 31.8 28.7 1 0 2.1 0 3.3-0.2 17.5-1.7 30.4-17.5 28.6-35.1-4.3-43-14.4-79.3-24.4-106.8 24.4 8.3 50.9 23.9 70.2 53.3 0.2 0.2 0.2 0.2 0.3 0.3 0.2 0.2 0.2 0.2 0.2 0.3 1.2 1.7 2.8 2.6 4.1 4 1.5 1.5 2.9 3.3 4.6 4.5 1.9 1.2 4 1.7 5.8 2.6 1.9 0.7 3.4 1.7 5.3 2.1 2.1 0.3 4.1 0.2 6.2 0.2 2.1 0 4 0.3 6 0 2.1-0.3 3.8-1.4 5.7-2.2 1.9-0.7 4-1.2 5.8-2.2 0.2-0.2 0.2-0.2 0.3-0.3 0.2 0 0.3-0.2 0.3-0.2 64.2-44.2 139.3-67.6 217.4-67.6 211.6 0 383.8 172.2 383.8 383.8S723.5 898.9 511.9 898.9 128.3 726.8 128.3 515.2c0-54.2 11-106.5 32.9-155.7 7.2-16.2-0.2-35.1-16.2-42.3-16.2-7.2-35.1 0.2-42.3 16.2-25.5 57.3-38.4 118.3-38.4 181.6 0 246.8 200.9 447.8 447.8 447.8S959.7 762 959.7 515.2 758.9 67.6 511.9 67.6z" fill="#575B66" p-id="1324"></path></svg>