<svg xmlns="http://www.w3.org/2000/svg" viewBox="0 0 1024 1024" version="1.1"><path d="M519 653.8l0-6.7c89.8-64.2 89.4-175.3 89.3-265.6l0-13.6c0-130.7-78.8-208.7-210.7-208.7l-6.7 0c-126.6 0-196.3 74.1-196.3 208.7 0 67.9 0 205.7 103.6 279.2l0 5.3c-120.1 17-232.7 66.2-232.7 144.7 0 109.1 107.7 162 329.1 162 283.3 0 342.8-88.1 342.8-162C737.3 713.2 598.4 669.1 519 653.8z" fill="#575B66" p-id="1031"></path><path d="M929.6 767.7c-17.5 0-31.8-14.3-32-31.8-0.3-23.4-101.7-88.4-197.3-99.8-16.2-1.9-28.2-15.7-28.2-31.8l0-66.2c0-9.8 4.5-18.9 12-24.9 54-43.2 95-137.3 95-218.8 0-109.9-74.3-133-136.6-133-17.7 0-32-14.3-32-32s14.3-32 32-32c123.7 0 200.6 75.5 200.6 197.1 0 94.8-44.2 200.4-107 258.4l0 24.6c91.9 19.6 225.7 83.9 225.7 158.6 0 17.5-14.3 31.7-31.8 31.8C929.7 767.7 929.7 767.7 929.6 767.7z" fill="#575B66" p-id="1032"></path></svg>