<svg xmlns="http://www.w3.org/2000/svg" viewBox="0 0 1024 1024" version="1.1"><path d="M401.3 960.2c-226.5 0-336.6-53-336.6-162.2 0-76.7 114.4-127.1 230-144.7l0-6.5c-86.4-66.1-97.9-184.1-97.9-281.1 0-132.1 77.8-211.1 208.1-211.1l6.9 0c130.4 0 208.1 79 208.1 211.1 0 97-11.5 214.8-97.9 281.1l0 6.5c115.6 17.5 230 67.8 230 144.7C752 872.1 691.2 960.2 401.3 960.2zM404.9 218.8c-95.6 0-144.1 49.5-144.1 147.1 0 91.3 9.8 190.8 83.1 237.4 9.3 5.8 14.8 16 14.8 27l0 51.3c0 16.3-12.4 30.1-28.6 31.8-121.1 12.7-201.4 59.3-201.4 84.6 0 65.2 91.7 98.2 272.6 98.2 182.2 0 286.7-35.8 286.7-98.2 0-25.3-80.3-71.9-201.4-84.6-16.3-1.7-28.6-15.5-28.6-31.8l0-51.3c0-11 5.7-21.2 14.8-27 73.1-46.6 83.1-146.2 83.1-237.4 0-97.5-48.5-147.1-144.1-147.1L404.9 218.8 404.9 218.8z" fill="#575B66" p-id="1043"></path><path d="M899.1 763.7c-17.7 0-32-14.3-32-32 0-24.4-91.2-83.9-197-95.1-16.3-1.7-28.7-15.5-28.7-31.8L641.4 538.4c0-11 5.7-21.2 14.8-27 82.7-52.6 91.7-169.8 91.7-217.8 0-110.4-74.7-133.7-137.3-133.7-17.7 0-32-14.3-32-32s14.3-32 32-32c124.2 0 201.3 75.7 201.3 197.6 0 55.7-10.7 188.7-106.5 261.3l0 22.2c102.2 18.6 225.7 80 225.7 154.6C931.3 749.5 916.8 763.7 899.1 763.7z" fill="#575B66" p-id="1044"></path></svg>