<svg xmlns="http://www.w3.org/2000/svg" viewBox="0 0 1024 1024" version="1.1"><path d="M767 959.8c-5.3 0-10.7-1.4-15.5-4l-241.3-133.8-241.9 133c-10.7 5.8-23.9 5.2-33.9-1.9-10-7.1-15.1-19.3-13.1-31.3L268.3 637.1 71.9 435c-8.3-8.4-11.2-21-7.4-32.2 3.6-11.4 13.2-19.6 24.9-21.7l155-26.7c17.5-2.9 34.1 8.8 37 26.1s-8.8 33.9-26.1 37l-95.1 16.3 165.3 170.1c7.1 7.2 10.3 17.5 8.6 27.5l-38.9 235.7 199.5-109.7c9.6-5.3 21.3-5.3 31 0l199.2 110.4-38-235.8c-1.5-10 1.5-20.3 8.8-27.5l164.6-168.2L634.7 401.7c-10.5-1.5-19.6-8.4-24.1-18.1L511.4 171.2l-100.1 211.7c-7.6 16-26.7 22.9-42.7 15.3-16-7.6-22.9-26.7-15.3-42.7l129.2-273.5c5.3-11.2 16.5-18.4 28.9-18.4 0 0 0 0 0 0 12.4 0 23.7 7.2 28.9 18.4l120.8 258.5 270.4 41.8c11.9 1.9 21.7 10.1 25.5 21.5 3.8 11.4 0.9 23.9-7.6 32.5l-197 201.3 45.9 284.9c1.9 12-3.3 24.3-13.2 31.3C779.9 957.9 773.5 959.8 767 959.8z" fill="#575B66" p-id="792"></path></svg>