<svg xmlns="http://www.w3.org/2000/svg" viewBox="0 0 1024 1024" version="1.1"><path d="M-473.6 981.7" fill="#272636" p-id="2103"></path><path d="M958.6 412.8c0-17-13.8-30.3-30.3-30.3-16.7 0-30.3 13.4-30.3 30.3l0 53.2L574 466c-1.7 0-3.3-1.4-3.3-3.3L570.7 61.4l-61.8 0-0.3 0C264 63.1 65.4 263.7 65.4 508.1c0 90 26.7 176.7 77.2 251 0.3 0.7 0.7 1.7 0.3 2.6-0.3 0.7-0.7 1.4-1.7 1.7-35.8 17.4-59.2 54.2-59.2 94.3 0 57.8 47 104.4 104.4 104.4 43 0 81.2-26 97.2-66.1 0.3-0.7 1-1.4 1.7-1.7 0.3 0 0.7 0 1 0 0.3 0 1 0 1.4 0.3 67.9 39.4 145.2 60 223.6 60 77.2 0 153.4-20.3 220.7-58.5 0.3-0.3 1-0.3 1.4-0.3s0.7 0 1 0c0.7 0.3 1.4 1 1.7 1.7 16.2 39 54.2 64.3 96.5 64.3 57.8 0 104.4-47 104.4-104.4 0-39-21.7-74.8-56.4-92.9-0.7-0.3-1.4-1-1.4-1.7 0-0.7 0-1.7 0.3-2.6 47.3-69 74.5-149.1 78.1-232.6 0-0.7 0.3-1 0.3-1.4l0-2.1c0.2-1.4 0.3-2.9 0.3-4.5L958.5 412.8zM508.5 121.8c0.7 0 1.4 0.3 2.2 0.7 0.7 0.7 1 1.4 1 2.2L511.7 462.7c0 1.7-1.4 3.3-3.3 3.3L131.1 466c-0.7 0-1.7-0.3-2.2-1-0.7-0.7-0.7-1.4-0.7-2.6C151 269.9 314.6 123.5 508.5 121.8zM186.8 897.9c-22 0-40.1-18.1-40.1-40.1 0-22 18.1-40.1 40.1-40.1 0.3 0 1 0 1.4 0l0.3 0c0.7 0 1.7 0.3 2.2 1 10.8 11.2 22.7 22.4 34.7 32.5 0.7 0.7 1 1.7 1 2.6 0 1-0.3 2.2 0 3.3l0.3 0.7C226.9 879.9 208.8 897.9 186.8 897.9zM833.2 897.9c-22 0-40.1-18.1-40.1-40.1l0-1.4c0-1 0.3-1.7 1-2.6 13.4-10.8 26-22.7 38.4-35.1 0.7-0.7 1.4-1 2.2-1 21.7 0.7 38.4 18.4 38.4 40.1C873.3 879.9 855.3 897.9 833.2 897.9zM511.7 894.6c-205.9 0-375.7-161-386.2-366.6 0-0.7 0.3-1.7 0.7-2.2 0.3-0.3 1.4-1 2.2-1l766.2 0c1 0.3 1.7 0.7 2.6 1 0.7 0.7 0.7 1.4 0.7 2.2C887.4 733.6 717.6 894.6 511.7 894.6z" fill="#575B66" p-id="2104"></path></svg>