<svg xmlns="http://www.w3.org/2000/svg" viewBox="0 0 1024 1024" version="1.1"><path d="M152.6 353.1 101.7 431.8l93.9 58.5c0 0 62.4 32.2 32.5 92.5C200.4 639.9 64 764.9 64 764.9l122.1 76.7c84.6-184.6 79-160 100.1-226.4 21.8-67.4 26.7-119.2-10.3-156.9C228.4 410.4 223.1 406 152.6 353.1z" fill="#575B66" p-id="1235"></path><path d="M219.3 323.6c44.4 0 80.3-32.3 80.3-72.2 0-40.3-36-72.6-80.3-72.6-44.7 0-80.5 32.5-80.5 72.6C139 291 174.6 323.6 219.3 323.6z" fill="#575B66" p-id="1236"></path><path d="M944.9 332.5c0 0-26.7-207.8-478.2-79.1 19.4-33.9 28.6-55.7 28.6-55.7l-112.7-32c0 0-45.6 149.7-126.8 219.3 0 0 78.8 45.8 77.9 44.4 22.5-22.7 42.8-45.8 60-68.1 18.1-8.1 35.4-15.5 52.3-22.4-21 37.8-54.5 94.6-88.2 130.4l47.5 42c0 0 32.5-31.5 67.8-69.1l40.3 0 0 69.8-157.2 0L356.1 567.6l157.2 0 0 133.7-6-0.2c-17.4-0.9-44.2-3.8-54.9-20.6-12.7-20.6-3.3-58-2.8-81.2l-108.5 0-4 2.2c0 0-39.9 179.4 114.7 175.5 144.5 4 227.4-40.8 267.3-71.6l15.8 59.5 89.1-37.7-60.4-148.6L691.5 601.5l13.4 50.7c-18.2 14.1-39.7 24.4-62.6 32.2L642.3 567.6l153.3 0 0-55.9-153.3 0 0-69.8 153.8 0 0-55.7-273.5 0c19.8-24.3 35.1-46.4 39.2-60.4l-47.8-13.1c204.7-74 318.7-61.2 317.9 59.9L831.9 691.5c0 0 12 109.4-112.5 101.7l-67.4-14.6-15.7 64.5c0 0 290.9 83.9 314.6-141.4C974.5 476.3 944.9 332.5 944.9 332.5z" fill="#575B66" p-id="1237"></path></svg>