<svg xmlns="http://www.w3.org/2000/svg" viewBox="0 0 1024 1024" version="1.1"><path d="M517.4 965.9c-9.6 0-19.4-0.3-29.1-0.9-59-3.6-115.6-18.6-168.2-43.9-54.7-26.3-103-62.8-143.6-108.9-40.6-45.9-70.9-98.4-90.1-156-18.6-55.6-26.1-113.5-22.5-172.5s18.6-115.6 43.9-168.2c26.3-54.7 62.8-103 108.9-143.6 45.9-40.6 98.4-70.9 156-90.1 46.3-15.5 94.6-23.4 143.5-23.4 9.6 0 19.4 0.3 29.1 0.9 58.8 3.6 115.6 18.6 168.4 43.9 54.7 26.3 103 62.8 143.6 108.9 48 54.4 81.2 118.3 99.3 189.9l0 0.2 0 0.2c3.6 11.2 0.3 23.4-8.3 31.1-5.3 4.6-12.2 7.4-19.3 7.4-8.4 0-16.3-3.6-22-10-1.7-1.9-2.8-4-3.6-5.7l-0.2-0.3-0.9-1-0.5-2.2c-14.8-61.4-44.4-117.7-88.1-166.9-69.7-78.6-165.6-125.6-270.1-131.9-8.3-0.5-16.7-0.9-24.9-0.9-47.6 0-94.3 8.4-138.3 25.1-44.2 16.7-85 41.3-120.9 72.9-78.6 69.3-125.6 165.1-131.9 269.9-6.5 104.6 28.2 205.7 97.5 284.3 69.1 78.6 165.1 125.6 269.9 132.1 8.3 0.5 16.7 0.9 24.9 0.9 47.6 0 94.3-8.4 138.3-25.1 44.2-16.7 85-41.3 120.9-72.9 62.8-55.6 105.4-128.3 123.5-211.1l0.2-0.3 0-0.3c0.7-6.7 3.8-12.9 8.8-17.9 0.2-0.2 0.3-0.3 0.3-0.3 0.2-0.2 0.3-0.3 0.5-0.5 5.3-4.6 12.2-7.2 19.4-7.2 7.6 0 14.8 2.8 20.1 7.9 5.5 5.2 8.8 12.6 8.9 21 0 0.9-0.2 1.7-0.2 2.4-20 98.4-69.7 184.7-143.6 249.8-45.8 40.4-98.2 70.7-156 90.1C614.6 957.9 566.3 965.9 517.4 965.9zM470.6 729.3 470.6 485.9l-3.6 1c-21.5 6.2-40.9 12.2-59.2 18.2-7.9 2.6-18.2 5.3-29.1 8.1-15 4-30.6 7.9-40.4 12l-1.7 0.7 0 127.8-70.5 0 0-199.5 70.4 0 0 29.4 3.8-1.4c5.8-2.2 16.5-4.6 27.9-7.2 11.7-2.8 24.9-5.8 35.1-9.1 19.4-6.2 41.5-12.2 65.4-17.4l2.2-0.5 0-51.1-2.9 0.2c-38.5 2.1-74.7 3.3-107 3.4-16.7 0.2-32.5 0.9-46.3 1.4-11.7 0.5-22.9 1-32.9 1l-12.9-50.6c17 0.2 34.4 1.4 51.3 2.4 17.7 1.2 36 2.4 53.2 2.4 5.7 0 10.8-0.2 16-0.3 38.4-2.1 77.1-5.5 115.1-10.5 38-5 75.9-11.4 112.3-19.3 35.8-7.4 72.8-16.9 110.3-27.7 6 14.8 10.8 26.1 15 36.5 0.9 2.1 1.7 4.1 2.4 6 1.2 2.8 2.2 5.5 3.4 8.1 1.5 3.8 3.1 7.4 4.5 10.5l0.7 1.7c1 2.9 2.4 6 4 9.1-32.7 5.3-66.6 9.8-100.5 13.2-24.9 2.6-56.8 4.8-84.8 6.9-9.8 0.7-18.9 1.4-27 2.1l-2.6 0.2 0 36 3.1-0.3c11-1 25.6-1.5 41.3-1.5 15.7 0 30.4 0.5 41.6 1.5 31.8 2.8 57.5 8.4 76.2 17 18.7 8.4 33.2 17.9 43 27.9 9.8 10.1 16.2 20.5 19.3 30.6 3.4 10.8 5.3 24.1 6 30.3 0.3 8.8 0.9 18.9 1.2 30.3 0.3 11 0 22.4-1.2 33.7-1.2 11.4-3.4 22.4-6.7 32.7-3.3 10.5-7.9 19.3-13.8 26.5-6.2 7.2-13.9 12.6-23.9 16.2-5.8 2.1-12.9 3.1-20.5 3.1-5.3 0-11-0.5-17-1.4-13.6-2.1-25.6-4.6-36.1-7.9-11.4-3.4-20.5-6.7-27.7-9.8-8.6-3.6-15.7-6.9-21.3-10l3.3-31.7c13.1 6.4 24.9 10.5 35.1 11.9 2.6 0.3 5.2 0.5 7.7 0.5 2.4 0 5-0.2 7.4-0.7 4.6-0.9 9.1-2.8 13.6-5.7 4.3-2.9 7.9-7.4 10.7-13.4 2.9-6 4.6-13.4 5.5-22.2 2.1-23.4 2.6-41.5 1.7-53.3-0.3-6.5-0.9-8.6-1.2-9.6 0-3.4-0.3-7.7-0.9-12.9-0.5-5.2-2.1-9.8-4.3-13.8-4.3-7.4-12.4-14.3-24.6-20.8-10-5.3-23.9-7.9-40.9-7.9-3.4 0-6.9 0.2-10.5 0.3l-0.2 0c-7.9 0.9-16 1.7-23.6 2.4-2.9 0.3-7.6 0.7-13.1 1-9.8 0.9-21 1.5-26.8 2.8l-2.2 0.3 0 252.9-70.9 0L470.6 729.3 470.6 729.3 470.6 729.3z" fill="#575B66" p-id="1248"></path></svg>