<svg xmlns="http://www.w3.org/2000/svg" viewBox="0 0 1024 1024" version="1.1"><path d="M452.2 146.9l-340.6 340.6c-13.1 13.1-34.1 13.1-47.1 0-13.1-13.1-12.9-34.1 0-47.1l340.6-340.6c13.1-13.1 34.1-13.1 47.1 0C465.3 112.8 465.3 133.8 452.2 146.9L452.2 146.9z" fill="#575B66" p-id="1055"></path><path d="M924.2 618.7l-340.6 340.6c-13.1 13.1-34.1 13.1-47.1 0-13.1-13.1-12.9-34.1 0-47.1l340.6-340.6c13.1-13.1 34.1-13.1 47.1 0C937.3 584.7 937.1 605.8 924.2 618.7L924.2 618.7z" fill="#575B66" p-id="1056"></path><path d="M451.2 620.8l-103 103c-13.1 13.1-34.1 13.1-47.1 0-13.1-13.1-12.9-34.1 0-47.1l103-103c13.1-13.1 34.1-13.1 47.1 0C464.3 586.7 464.3 607.9 451.2 620.8L451.2 620.8z" fill="#575B66" p-id="1057"></path><path d="M298.4 525l-74.7 74.7c-13.1 13.1-34.1 13.1-47.1 0-13.1-13.1-12.9-34.1 0-47.1l74.7-74.7c13.1-13.1 34.1-13.1 47.1 0C311.3 490.9 311.3 512.1 298.4 525L298.4 525z" fill="#575B66" p-id="1058"></path><path d="M545.3 772l-74.7 74.7c-13.1 13.1-34.1 13.1-47.1 0-13.1-13.1-12.9-34.1 0-47.1l74.7-74.7c13.1-13.1 34.1-13.1 47.1 0C558.4 737.9 558.4 758.9 545.3 772L545.3 772z" fill="#575B66" p-id="1059"></path><path d="M536.3 959.3 64.5 487.7c-13.1-13.1-13.1-34.1 0-47.1 13.1-13.1 34.1-12.9 47.1 0l471.8 471.8c13.1 13.1 13.1 34.1 0 47.1C570.4 972.4 549.4 972.4 536.3 959.3L536.3 959.3z" fill="#575B66" p-id="1060"></path><path d="M732.3 763.6 260.4 291.7c-13.1-13.1-13.1-34.1 0-47.1 13.1-13.1 34.1-12.9 47.1 0L779.2 716.4c13.1 13.1 13.1 34.1 0 47.1C766.3 776.6 745.2 776.5 732.3 763.6L732.3 763.6z" fill="#575B66" p-id="1061"></path><path d="M912.4 219.5l-107.7-107.9c-13.1-13.1-13.1-34.1 0-47.1 13.1-13.1 34.1-12.9 47.1 0l107.7 107.9c13.1 13.1 13.1 34.1 0 47.1C946.4 232.6 925.3 232.6 912.4 219.5L912.4 219.5z" fill="#575B66" p-id="1062"></path><path d="M587.3 328.7 405.4 146.9c-13.1-13.1-13.1-34.1 0-47.1 13.1-13.1 34.1-12.9 47.1 0l182 182c13.1 13.1 13.1 34.1 0 47.1C621.5 341.8 600.3 341.8 587.3 328.7L587.3 328.7z" fill="#575B66" p-id="1063"></path><path d="M877.1 618.6 695.3 436.7c-13.1-13.1-13.1-34.1 0-47.1 13.1-13.1 34.1-12.9 47.1 0l182 182c13.1 13.1 13.1 34.1 0 47.1C911.3 631.6 890.2 631.6 877.1 618.6L877.1 618.6z" fill="#575B66" p-id="1064"></path><path d="M959.3 219.5 742.2 436.6c-13.1 13.1-34.1 13.1-47.1 0-13.1-13.1-12.9-34.1 0-47.1l217.1-217.1c13.1-13.1 34.1-13.1 47.1 0C972.4 185.3 972.4 206.4 959.3 219.5L959.3 219.5z" fill="#575B66" p-id="1065"></path><path d="M851.6 111.6 634.4 328.7c-13.1 13.1-34.1 13.1-47.1 0-13.1-13.1-12.9-34.1 0-47.1L804.5 64.5c13.1-13.1 34.1-13.1 47.1 0C864.7 77.6 864.5 98.6 851.6 111.6L851.6 111.6z" fill="#575B66" p-id="1066"></path></svg>