<svg xmlns="http://www.w3.org/2000/svg" viewBox="0 0 1024 1024" version="1.1"><path d="M351.9 575.9l-128 0c-17.7 0-32-14.3-32-32 0-17.7 14.3-32 32-32L319.9 511.9l0-96c0-17.7 14.3-32 32-32 17.7 0 32 14.3 32 32l0 128C383.9 561.6 369.7 575.9 351.9 575.9z" fill="#575B66" p-id="1357"></path><path d="M702.2 666.9c-61.9 0-113.7 43.3-127.3 101.1l-123.9 0c-13.6-58-65.4-101.1-127.3-101.1-72.2 0-131.1 58.8-131.1 131.1 0 72.4 58.8 131.2 131.1 131.2 60.4 0 110.8-41.3 125.9-97l126.4 0c15.1 55.7 65.5 97 126.1 97 72.2 0 131.1-58.8 131.1-131.1S774.4 666.9 702.2 666.9zM323.7 865.1c-37 0-67.1-30.1-67.1-67.3 0-37 30.1-67.1 67.1-67.1 37 0 67.1 30.1 67.1 67.1C390.8 835 360.7 865.1 323.7 865.1zM702.2 864.9c-37 0-67.1-30.1-67.1-67.1s30.1-67.1 67.1-67.1c37 0 67.1 30.1 67.1 67.1S739.1 864.9 702.2 864.9z" fill="#575B66" p-id="1358"></path><path d="M864 96 399.8 96c-44 0-79.8 35.8-79.8 79.8l0 92.5L125.4 366c-1.4 0.7-2.8 1.5-4 2.4C85.3 393.9 65.4 433.5 65.4 479.9l0 322c0 17.7 14.3 32 32 32s32-14.3 32-32L129.4 479.9c0-24.9 9.1-44.6 27-58L366.4 316.7c1.4-0.7 2.4-2.1 3.6-2.9 1.9-1.4 3.8-2.6 5.3-4.1 1.4-1.5 2.4-3.3 3.4-5s2.2-3.3 2.9-5.3c0.9-2.2 1-4.5 1.4-6.7 0.2-1.5 0.9-2.9 0.9-4.5l0-112.3c0-8.6 7.1-15.8 15.8-15.8l464.3 0c17.5 0 32 14.6 32 32.5l0 607.4c0 17.7 14.3 32 32 32s32-14.3 32-32L960 192.5C960 139.3 916.8 96 864 96z" fill="#575B66" p-id="1359"></path></svg>