<svg xmlns="http://www.w3.org/2000/svg" viewBox="0 0 1024 1024" version="1.1"><path d="M371.5 833.3l0 1.2c-6.6 0-11.4 0.5-14.2 0.5l-3.3 0c-69.8 0-126.1-55.8-128-125.6-1.1-34.2 11.3-67.4 34.7-92.3 23.5-24.9 55.2-39.5 89.4-40.5 0.3 0 3.8-0.2 4.1-0.2 26.8 0 52.5 8.4 74.6 24.5 31 11 62.4-4.4 93-45.4 30.5-40.8 36.9-73.1 19-96-6.3-4.6-12.5-10-18.5-16.5-1.1-1-2-2.2-3-3.3-20-22.6-31.5-51.2-32.4-80.7-1.9-70.8 53.8-129.9 124.3-131.9 0.3 0 3.6-0.1 3.9-0.1 59.3 0 111.7 42 124.6 99.9 10.4 32.2 37 159.5-90.9 330.6C530.4 816.2 415.5 833.3 371.5 833.3L371.5 833.3zM367.4 768.7c19.1 0.4 119.6-2.3 229.5-149.7 112.3-150.2 86.7-255.5 80.5-275.1-7.2-31.4-33.1-52.2-62.4-52.2-37 1-64.6 30.4-63.7 65.5 0.6 18.6 9.4 32.3 16.7 40.3 0.2 0.3 0.5 0.5 0.7 0.8 4.1 4.4 7.9 7.7 11.7 10.1 2.4 1.6 4.6 3.5 6.5 5.6 19.8 22.3 58.1 84.5-13.4 180.1-46.2 61.8-93.5 74.7-125 74.8-16.2 0-32.4-3.3-47.9-9.8-2.7-1.1-5.2-2.6-7.5-4.4-8-6.3-21.3-13.9-38.7-13.9-19.2 0.5-34.8 7.6-46.4 19.9-11.6 12.4-17.7 28.5-17.2 45.5 1 34.7 28.9 61.8 63.5 61.8 0.2 0 0.2 0 0.1 0.1 1.2-0.2 2.5-0.4 3.3-0.4C360.8 767.7 364.2 767.9 367.4 768.7L367.4 768.7zM515.7 967.5c-60.7 0-119.6-11.9-175.1-35.2-16.4-7-24.1-25.8-17.2-42.3 6.9-16.5 25.8-24.1 42.3-17.2 47.5 20 97.9 30.1 150 30.1 213.5 0 387.2-173.7 387.2-387.2 0-213.5-173.7-387.2-387.2-387.2S128.5 302.2 128.5 515.7c0 73 20.4 144.1 59.1 205.6 9.4 15.1 4.9 35-10.2 44.5-15.1 9.5-35 4.9-44.5-10.2-45.2-71.9-69-154.8-69-239.9 0-249.1 202.7-451.8 451.8-451.8s451.8 202.7 451.8 451.8C967.4 764.8 764.8 967.5 515.7 967.5L515.7 967.5z" fill="#575B66" p-id="1991"></path></svg>