<svg xmlns="http://www.w3.org/2000/svg" viewBox="0 0 1024 1024" version="1.1"><path d="M924.7 197.2c0-49.1-39.7-88.9-88.9-88.9l-194-53.8-0.4-0.4-0.4 0.4-0.7-0.4 0 1.1L505.7 171.2l-134-116.3L371.7 54.2l-1.1 0.4-0.4-0.4-0.7 0.7L192.9 108.4c-49.1 0-88.9 39.7-88.9 88.9l-43.3 426.9c0 49.1 39.7 88.9 88.9 88.9l40.5 0 0 160.4c0 49.1 39.7 88.9 88.9 88.9l472.4 0c49.1 0 88.9-39.7 88.9-88.9l0-160.4 39 0c49.1 0 88.9-39.7 88.9-88.9L924.7 197.2zM879.2 654.1l-39 0 0-57.1-59.2 0 0 276.7c0 16.3-13.4 29.6-29.6 29.6L278.8 903.4c-16.3 0-29.6-13.4-29.6-29.6l0-276.7L190 597.1l0 57.1L149.2 654.1c-16.3 0-29.6-13.4-29.6-29.6l43.3-426.9c0-16.3 13.4-29.6 29.6-29.6l164.3-49.8 148.1 128.2L505.7 245.6l0.7 0.7 148.5-128.6 180.6 50.2c16.3 0 29.6 13.4 29.6 29.6l43.3 426.9C908.8 640.8 895.4 654.1 879.2 654.1z" fill="#575B66" p-id="2115"></path><path d="M518.7 301.6 571.8 575 505.7 641.9 435.6 570.7 491.6 300.9 444.3 261.5 377.8 596 421.5 639 421.9 637.5 465.9 682.3 465.9 682.3 465.9 682.7 505.3 722.4 505.7 722 506.4 722.4 544.7 683.4 545.8 682.3 545.8 682.3 585.1 642.2 585.1 643.3 628.8 600.3 562.4 265.8Z" fill="#575B66" p-id="2116"></path></svg>