<svg xmlns="http://www.w3.org/2000/svg" viewBox="0 0 1024 1024" version="1.1"><path d="M511.9 928c-8.3 0-16.3-3.1-22.7-9.5l-96-96c-12.6-12.6-12.6-32.7 0-45.2s32.7-12.6 45.2 0l73.5 73.5 73.5-73.5c6-6 14.1-9.5 22.7-9.5l224 0c17.7 0 32-14.3 32-32L864 224c0-17.5-14.3-32-32-32l-639.9 0c-17.5 0-32 14.4-32 32l0 511.9c0 17.7 14.4 32 32 32l96 0c17.7 0 32 14.3 32 32s-14.3 32-32 32l-96 0c-53 0-96-43-96-96L96.2 224c0-53 43-96 96-96l639.9 0c53 0 96 43 96 96l0 511.9c0 53-43 96-96 96L621.1 831.9 534.6 918.6C528.4 924.7 520.2 928 511.9 928z" fill="#575B66" p-id="1017"></path><path d="M335.9 511.9c-26.5 0-48-21.5-48-48s21.5-48 48-48 48 21.5 48 48S362.4 511.9 335.9 511.9z" fill="#575B66" p-id="1018"></path><path d="M527.9 511.9c-26.5 0-48-21.5-48-48s21.5-48 48-48 48 21.5 48 48S554.4 511.9 527.9 511.9z" fill="#575B66" p-id="1019"></path><path d="M720.1 511.9c-26.5 0-48-21.5-48-48s21.5-48 48-48c26.5 0 48 21.5 48 48S746.4 511.9 720.1 511.9z" fill="#575B66" p-id="1020"></path></svg>