<svg xmlns="http://www.w3.org/2000/svg" viewBox="0 0 1024 1024" version="1.1"><path d="M832 128l-639.9 0c-53 0-96 43-96 96l0 511.9c0 53 43 96 96 96l210.7 0 86.7 86.7c6.2 6.2 14.4 9.5 22.7 9.5s16.3-3.1 22.7-9.5l86.7-86.7 210.7 0c53 0 96-43 96-96L928.4 224C928 171 884.8 128 832 128zM335.9 511.9c-26.5 0-48-21.5-48-48s21.5-48 48-48 48 21.5 48 48S362.4 511.9 335.9 511.9zM527.9 511.9c-26.5 0-48-21.5-48-48s21.5-48 48-48 48 21.5 48 48S554.4 511.9 527.9 511.9zM720.1 511.9c-26.5 0-48-21.5-48-48s21.5-48 48-48c26.5 0 48 21.5 48 48S746.4 511.9 720.1 511.9z" fill="#575B66" p-id="1006"></path></svg>