<svg xmlns="http://www.w3.org/2000/svg" viewBox="0 0 1024 1024" version="1.1"><path d="M860.4 207.4 509.3 207.4c0-52.8-43-95.8-95.8-95.8l-63.8 0c-52.8 0-95.8 43-95.8 95.8L158.4 207.4c-52.8 0-95.8 43-95.8 95.8l0 510.5c0 52.8 43 95.8 95.8 95.8l702 0c52.8 0 95.8-43 95.8-95.8L956.2 303.3C956.1 250.5 913.1 207.4 860.4 207.4zM509.3 750c-105.6 0-191.5-85.8-191.5-191.5s85.8-191.5 191.5-191.5 191.5 85.8 191.5 191.5S615 750 509.3 750zM812.4 430.9c-26.5 0-47.8-21.5-47.8-47.8s21.5-47.8 47.8-47.8c26.5 0 47.8 21.5 47.8 47.8S838.9 430.9 812.4 430.9z" fill="#575B66" p-id="1699"></path></svg>