<svg xmlns="http://www.w3.org/2000/svg" viewBox="0 0 1024 1024" version="1.1"><path d="M509.5 750c-105.6 0-191.5-85.8-191.5-191.5s85.8-191.5 191.5-191.5 191.5 85.8 191.5 191.5S615.1 750 509.5 750zM509.5 430.9c-70.4 0-127.6 57.3-127.6 127.6s57.3 127.6 127.6 127.6 127.6-57.3 127.6-127.6S579.9 430.9 509.5 430.9z" fill="#575B66" p-id="1710"></path><path d="M860.6 909.6 158.4 909.6c-52.8 0-95.8-43-95.8-95.8L62.6 303.3c0-52.8 43-95.8 95.8-95.8l95.8 0c17.5 0 32 14.3 32 32 0 17.7-14.3 32-32 32L158.4 271.4c-17.5 0-32 14.3-32 32l0 510.5c0 17.5 14.3 32 32 32l702 0c17.5 0 32-14.3 32-32L892.4 303.3c0-17.5-14.3-32-32-32l-350.9 0c-17.5 0-32-14.3-32-32 0-17.7 14.3-32 32-32l351.1 0c52.8 0 95.8 43 95.8 95.8L956.4 813.6C956.2 866.6 913.2 909.6 860.6 909.6z" fill="#575B66" p-id="1711"></path><path d="M764.8 351.3c0 26.5 21.5 47.8 47.8 47.8 26.5 0 47.8-21.5 47.8-47.8s-21.5-47.8-47.8-47.8C786.3 303.3 764.8 324.8 764.8 351.3z" fill="#575B66" p-id="1712"></path><path d="M477.7 143.8c0 17.5-14.3 32-32 32l-127.6 0c-17.5 0-32-14.3-32-32l0 0c0-17.5 14.3-32 32-32l127.6 0C463.2 111.8 477.7 126.1 477.7 143.8L477.7 143.8z" fill="#575B66" p-id="1713"></path></svg>