<svg xmlns="http://www.w3.org/2000/svg" viewBox="0 0 1024 1024" version="1.1"><path d="M608.2 960c-17.7 0-32-14.3-32-32l0-479.9c0-7.9 2.9-15.7 8.3-21.5l208.8-234.5L230.5 192.1l209.2 234.6c5.2 5.8 8.1 13.4 8.1 21.3l0 288.8 50.9 41.1c13.8 11.2 15.8 31.3 4.8 45.1s-31.3 15.8-45.1 4.8L395.6 776.8c-7.6-6-11.9-15.3-11.9-24.9L383.8 460.1 135.2 181.3c-8.4-9.5-10.5-22.9-5.3-34.4 5.2-11.5 16.7-18.9 29.2-18.9l706.3 0c12.7 0 24.1 7.4 29.2 19.1 5.2 11.5 2.9 25.1-5.5 34.4L640.2 460.3l0 467.7C640.2 945.7 626 960 608.2 960z" fill="#575B66" p-id="1105"></path></svg>