<svg xmlns="http://www.w3.org/2000/svg" viewBox="0 0 1024 1024" version="1.1"><path d="M880.2 142l-729.6 0c-49.1 0-88.9 39.7-88.9 88.9l0 160 0 4.7 0 382.9c0 49.1 39.7 88.9 88.9 88.9l729.6 0c49.1 0 88.9-39.7 88.9-88.9l0-382.9 0-4.7L969.1 230.8C969.5 181.7 929.4 142 880.2 142zM150.6 201.2l729.6 0c16.3 0 29.6 13.4 29.6 29.6L909.9 307c-9.4-3.3-19.1-5.1-29.6-5.1L852.4 302l-84.9 0L263.7 302 178.8 302l-28.2 0c-10.5 0-20.2 1.8-29.6 5.1L121 230.8C121 214.6 134.4 201.2 150.6 201.2zM708.7 361.2l-153.9 155.7c-15.5 15.5-27.1 21.7-39 21.3-11.6 0-23.8-6.1-39-21.3L322.2 361.2 708.7 361.2zM909.9 778.7c0 16.3-13.4 29.6-29.6 29.6l-729.6 0c-16.3 0-29.6-13.4-29.6-29.6l0-382.9 0-4.7c0-16.3 13.4-29.6 29.6-29.6l86.7 0L433.4 559.9c27.1 27.1 54.5 39 81.6 39 27.5 0 54.5-11.9 82-39.4l196.1-198.3 86.7 0c16.3 0 29.6 13.4 29.6 29.6l0 4.7L909.5 778.7z" fill="#575B66" p-id="2174"></path></svg>