<svg xmlns="http://www.w3.org/2000/svg" viewBox="0 0 1024 1024" version="1.1"><path d="M350.4 296.6l574.5 0c19.8 0 36-16.2 36-36 0-19.8-16-36-36-36l-574.5 0c-19.8 0-36 16.2-36 36C314.4 280.4 330.6 296.6 350.4 296.6z" fill="#575B66" p-id="1889"></path><path d="M924.9 476.1l-574.5 0c-19.8 0-36 16.2-36 36 0 19.8 16.2 36 36 36l574.5 0c19.8 0 36-16.2 36-36C960.9 492.3 944.7 476.1 924.9 476.1z" fill="#575B66" p-id="1890"></path><path d="M924.9 727.4l-574.5 0c-19.8 0-36 16-36 36s16.2 36 36 36l574.5 0c19.8 0 36-16 36-36S944.7 727.4 924.9 727.4z" fill="#575B66" p-id="1891"></path><path d="M63.1 260.6c0 39.7 32.2 71.9 71.9 71.9s71.9-32.2 71.9-71.9-32.2-71.9-71.9-71.9S63.1 221 63.1 260.6z" fill="#575B66" p-id="1892"></path><path d="M63.1 511.9c0 39.7 32.2 71.9 71.9 71.9s71.9-32.2 71.9-71.9c0-39.7-32.2-71.9-71.9-71.9S63.1 472.4 63.1 511.9z" fill="#575B66" p-id="1893"></path><path d="M63.1 763.4c0 39.7 32.2 71.9 71.9 71.9s71.9-32.2 71.9-71.9c0-39.7-32.2-71.9-71.9-71.9S63.1 723.7 63.1 763.4z" fill="#575B66" p-id="1894"></path></svg>