<svg xmlns="http://www.w3.org/2000/svg" viewBox="0 0 1024 1024" version="1.1"><path d="M516 352.1c-1.9 0-3.8-0.2-5.7-0.5L154.6 287.6c-15.1-2.8-26.3-16-26.3-31.5L128.3 160.1c0-52.8 43-96 96-96L799.9 64.2c52.8 0 96 43 96 96l0 96c0 15.5-11 28.7-26.1 31.5l-347.8 64C519.8 351.9 517.9 352.1 516 352.1zM192.1 229.5l323.7 58.1 315.8-58.1L831.7 160.1c0-17.5-14.3-32-32-32L224.1 128.2c-17.5 0-32 14.3-32 32C192.1 160.1 192.1 229.5 192.1 229.5z" fill="#575B66" p-id="1771"></path><path d="M799.9 959.7 224.1 959.7c-52.8 0-96-43-96-96L128.2 384.1c0-17.7 14.3-32 32-32s32 14.3 32 32l0 479.7c0 17.7 14.3 32 32 32L799.9 895.8c17.7 0 32-14.3 32-32L831.9 384.1c0-17.7 14.3-32 32-32 17.7 0 32 14.3 32 32l0 479.7C895.7 916.7 852.7 959.7 799.9 959.7z" fill="#575B66" p-id="1772"></path><path d="M607.7 639.9c17.7 0 32-14.3 32-32s-14.3-32-32-32l-51.8 0 76-73.3c12.7-12.2 13.1-32.5 0.9-45.1-12.2-12.7-32.5-12.9-45.2-0.7l-76.2 73.6-73.3-73.1c-12.6-12.6-32.9-12.6-45.2 0-12.6 12.6-12.4 32.5 0 45.1l74 73.6-51.1 0c-17.7 0-32 14.3-32 32s14.3 32 32 32L479.9 640.1l0 32-64.2 0c-17.7 0-32 14.3-32 32 0 17.7 14.3 32 32 32L479.9 736l0 64.3c0 17.7 14.3 32 32 32 17.7 0 32-14.3 32-32l0-64.3 63.8 0c17.7 0 32-14.3 32-32 0-17.7-14.3-32-32-32l-63.8 0L543.9 639.9 607.7 639.9z" fill="#575B66" p-id="1773"></path></svg>