<svg xmlns="http://www.w3.org/2000/svg" viewBox="0 0 1024 1024" version="1.1"><path d="M943.3 611.7l-112-66.9c0 0-51.9 81-146.6 116.6-37.3-28.9-68.5-59.9-92-90.3 85.5-8.1 165.3-17.5 219.5-28.4-26.8-31.8-56.4-98-56.4-98-16.5 6.7-36.6 13.1-59.3 19.1 30.3-16.7 58.3-32.9 84.1-48.5 27.2 26 54 56.6 77.8 92.4 0 0 54.5-41.3 101.7-81.7-28.4-25.8-59.9-49.4-91.7-70.4 27.5-21.7 48.5-42.1 60.7-61.4 22.7-35.1 19.4-62.1 4.6-87.9-23.4-40.4-71.7-59.7-141.7-60.2-85.1-0.7-172.5 18.4-217.3 29.6L574.7 140 95.8 140l0 72.2L153.1 212.3l0 197.8c-31.1 2.9-61.4 6.4-89.1 10.3l39.4 97.7c0 0 103.9-35.3 297.2-53.7l0 49.9c-97.7 11-191.5 17.5-252.7 18.4l15.5 67.9c0 0 75.3-3.4 177-10-45.6 33.9-130 82.6-259.9 104.6 0 0 23.4 34.1 30.4 54.2 56.4 0 259.2-58.5 332.5-126.6l-33.7-36.8c12.2-0.9 24.4-1.7 37-2.8l0 300.7 138.5 0L585.2 699.6c46.1 52.6 127.3 121.8 263.4 178.9 20.5-22.5 98-98.2 98-98.2-69.3-14.1-131.2-38.7-184.9-68.5C856.1 690.3 943.3 611.7 943.3 611.7zM256 290.2 400.8 290.2l0 34.4-144.7 0L256 290.2 256 290.2zM400.8 212.3l0 31.1-144.7 0 0-31.1L400.8 212.3zM256 402.2 256 371.6 400.8 371.6l0 23.4C356.1 396.5 306.4 398.7 256 402.2zM505.2 456.9c20.5-1 41.6-1.9 63.5-2.4l0-63.8c0 0-24.3 0.2-63.5 1L505.2 212.3l53.5 0 23.9 48.9c1.4-0.3 72.9-53.5 192.8-53.5 1.4 0 2.8-0.2 4.1 0 32 2.2 53.2 8.4 61.6 24.9 5.3 10.3 2.9 23.4-7.6 37.2-9.6 12.6-25.8 25.1-46.3 37.5-76.4-41.3-138.3-64.3-138.3-64.3l-50.1 54c0 0 44.2 16.2 100.8 53.8-36.8 16-76.9 31.7-115.9 47.1l52.5 80.3c-40.3 8.4-84.8 16-130.9 22.7l0-44L505.2 456.9z" fill="#575B66" p-id="1830"></path><path d="M80.5 820.7c0 0 23.4 34.1 30.4 54.2 56.4 0 259.2-58.3 332.7-126.6l-62.1-67.9C381.5 680.5 289.7 785.2 80.5 820.7z" fill="#575B66" p-id="1831"></path></svg>