<svg xmlns="http://www.w3.org/2000/svg" viewBox="0 0 1024 1024" version="1.1"><path d="M133.3 296.6l757.2 0c19.8 0 36-16.2 36-36 0-19.8-16-36-36-36L133.3 224.7c-19.8 0-36 16.2-36 36C97.4 280.4 113.5 296.6 133.3 296.6z" fill="#575B66" p-id="1916"></path><path d="M890.5 476.1 133.3 476.1c-19.8 0-36 16.2-36 36 0 19.8 16.2 36 36 36l757.2 0c19.8 0 36-16.2 36-36C926.5 492.3 910.3 476.1 890.5 476.1z" fill="#575B66" p-id="1917"></path><path d="M890.5 727.4 133.3 727.4c-19.8 0-36 16-36 36s16.2 36 36 36l757.2 0c19.8 0 36-16 36-36S910.3 727.4 890.5 727.4z" fill="#575B66" p-id="1918"></path></svg>