<svg xmlns="http://www.w3.org/2000/svg" viewBox="0 0 1024 1024" version="1.1"><path d="M756.7 884.2" fill="#272636" p-id="2091"></path><path d="M873 896.1l-119.2-499.2-0.4-187.8c0-11.2-3.3-21.7-8.7-31.1 5.4-9 8.3-19.5 8.3-30l0-30c0-32.9-26.7-59.2-59.2-59.2L313.2 58.9c-32.9 0-59.2 26.7-59.2 59.2l0 30c0 10.8 2.9 21.7 8.7 30.7-5.4 9-8.3 19.5-8.3 30.3l-0.4 187.8-119.2 499.2c-0.4 1.1-0.4 2.2-0.4 3.3 0 32.9 26.7 59.2 59.2 59.2l161.1 0c32.1 0 58.5-25.6 59.2-57.4l89.6-375.6 89.6 375.6c1.1 31.8 27.1 57.4 59.2 57.4l161.1 0c32.9 0 59.2-26.7 59.2-59.2C873.4 898.3 873 897.2 873 896.1zM355.4 896.1c-0.4 1.1-0.7 2.5-0.7 3.6l-160.7 0 116.3-488.3 34.3 0c32.1 0 58.2-25.6 59.2-57.1l39.4-140.9c0.4-1.4 0.7-2.5 0.7-4 0 0 0-0.4 0-0.4l29.6 0 0.4 189.6c0 0.4 0 0.4 0 0.7L355.4 896.1zM345.7 347.8c-0.4 1.4-0.7 2.9-0.7 4l-31.8 0 0.4-143L382.9 208.8c0.4 0 1.1 0.4 1.4 0.4L345.7 347.8zM694.6 351.8l-31.8 0c0-1.4-0.4-2.5-0.7-4l-39-138.7c0.4 0 1.1 0 1.4-0.4l69.7 0L694.6 351.8zM533.9 398.4c0 0 0.4-189.6 0.4-189.6l29.6 0c0 0 0 0.4 0 0.4 0 1.4 0.4 2.5 0.7 4l39.4 140.9c1.1 31.8 27.5 57.1 59.2 57.1l34.3 0 116.3 488.3-161.1 0c0-1.1 0-2.2-0.4-3.3l-118.5-497C533.9 398.8 533.9 398.8 533.9 398.4zM693.9 118.1l0 30-380.7 0 0-30L693.9 118.1z" fill="#575B66" p-id="2092"></path></svg>