<svg xmlns="http://www.w3.org/2000/svg" viewBox="0 0 1024 1024" version="1.1"><path d="M800 928 224 928c-53 0-96-43-96-96l0-639.9c0-53 43-96 96-96l575.9 0c53 0 96 43 96 96l0 639.9C896 884.8 852.8 928 800 928zM224 160c-17.5 0-32 14.4-32 32l0 639.9c0 17.7 14.4 32 32 32l575.9 0c17.7 0 32-14.3 32-32l0-639.9c0-17.5-14.3-32-32-32L224 160z" fill="#575B66" p-id="839"></path><path d="M640.9 544.8 287.8 544.8c-17.7 0-32-14.3-32-32 0-17.7 14.3-32 32-32l353.1 0c17.7 0 32 14.3 32 32C672.9 530.5 658.6 544.8 640.9 544.8z" fill="#575B66" p-id="840"></path><path d="M734.8 735.5l-447.2 0c-17.7 0-32-14.3-32-32s14.3-32 32-32l447.2 0c17.7 0 32 14.3 32 32S752.6 735.5 734.8 735.5z" fill="#575B66" p-id="841"></path><path d="M255.8 305.3c0 26.5 21.5 48 48 48s48-21.5 48-48-21.5-48-48-48S255.8 278.8 255.8 305.3z" fill="#575B66" p-id="842"></path><path d="M463.1 305.3c0 26.5 21.5 48 48 48s48-21.5 48-48-21.5-48-48-48S463.1 278.8 463.1 305.3z" fill="#575B66" p-id="843"></path><path d="M671.2 305.3c0 26.5 21.5 48 48 48s48-21.5 48-48-21.5-48-48-48S671.2 278.8 671.2 305.3z" fill="#575B66" p-id="844"></path></svg>