<svg xmlns="http://www.w3.org/2000/svg" viewBox="0 0 1024 1024" version="1.1"><path d="M511.9 607.9c-53 0-96-43-96-96s43-96 96-96 96 43 96 96S564.9 607.9 511.9 607.9zM511.9 479.9c-17.5 0-32 14.4-32 32s14.4 32 32 32 32-14.4 32-32S529.6 479.9 511.9 479.9z" fill="#575B66" p-id="1130"></path><path d="M630.9 960c-10 0-19.8-4.8-25.8-13.1L531.7 846.3c-13.6 0.9-26 0.9-39.6 0l-73.5 100.5c-7.9 10.8-21.7 15.7-34.6 11.9-34.6-9.8-67.4-23.4-97.7-40.3-11.7-6.5-18.1-19.6-16-32.9l19.3-123.3c-9.8-8.8-19.1-18.1-27.9-27.9l-123.3 19.3c-13.1 2.1-26.3-4.3-32.9-16-16.9-30.4-30.4-63.3-40.3-97.9-3.6-12.9 1-26.7 11.9-34.6l100.5-73.5c-0.5-6.9-0.7-13.4-0.7-19.8s0.2-12.9 0.7-19.8l-100.5-73.5c-10.8-7.9-15.7-21.7-11.9-34.6 9.8-34.6 23.4-67.4 40.3-97.7 6.5-11.7 19.8-18.1 32.9-16l123.3 19.3c8.8-9.8 18.1-19.1 27.9-27.9l-19.3-123.3c-2.1-13.2 4.3-26.3 16.2-32.9 30.4-16.9 63.3-30.4 97.7-40.3 12.9-3.6 26.7 1 34.6 11.9l73.5 100.5c13.6-0.9 25.8-0.9 39.6 0l73.5-100.5c7.9-10.8 21.7-15.5 34.6-11.9 34.4 9.8 67.3 23.4 97.7 40.3 11.7 6.5 18.1 19.6 16 32.9l-19.3 123.3c9.8 8.8 19.1 18.1 27.9 27.7l123.3-19.3c13.1-2.1 26.3 4.3 32.9 16 16.9 30.4 30.4 63.3 40.4 97.9 3.6 12.9-1 26.7-11.9 34.6L846.3 492.1c0.5 6.9 0.7 13.4 0.7 19.8 0 6.4-0.2 12.9-0.7 19.8l100.5 73.5c10.8 7.9 15.5 21.7 11.9 34.6-9.8 34.6-23.4 67.4-40.4 97.9-6.5 11.7-19.4 18.1-32.9 16L762.2 734.5c-8.6 9.8-18.1 19.1-27.9 27.7l19.3 123.3c2.1 13.2-4.3 26.3-16 32.9-30.3 16.9-63.1 30.4-97.7 40.3C637 959.5 634 960 630.9 960zM337.1 872.6c13.9 6.7 28.6 12.7 43.5 17.9l70.5-96.5c6.7-9.3 18.1-14.3 29.4-12.9 20.6 2.4 42.1 2.4 62.6 0 11.9-1.4 22.7 3.6 29.4 12.9l70.5 96.5c15-5.2 29.6-11.2 43.5-17.9l-18.4-118.3c-1.7-11.4 2.8-22.9 11.7-29.9 16.3-13.1 31.3-27.9 44.2-44.2 7.2-8.9 18.4-13.6 29.9-11.7l118.3 18.4c6.7-13.9 12.7-28.6 17.9-43.5l-96.5-70.5c-9.3-6.7-14.3-18.1-12.9-29.4 1.2-10.3 1.9-20.6 1.9-31.3s-0.7-21-1.9-31.3c-1.4-11.4 3.6-22.7 12.9-29.4l96.5-70.5c-5.2-15-11.2-29.6-17.9-43.5l-118.3 18.4c-11.4 1.7-22.9-2.8-29.9-11.7-12.9-16.2-27.7-31.1-44.2-44.2-8.9-7.2-13.4-18.6-11.7-29.9L686.9 151.4c-13.9-6.7-28.6-12.7-43.5-17.9l-70.5 96.5c-6.7 9.3-17.7 14.4-29.4 12.9-20.5-2.4-42-2.4-62.6 0-11.5 1.4-22.7-3.6-29.6-12.9l-70.5-96.5c-15 5.2-29.6 11.2-43.5 17.9l18.4 118.3c1.7 11.4-2.8 22.9-11.7 29.9-16.3 12.9-31.1 27.9-44.2 44.2-7.2 8.9-18.6 13.4-29.9 11.7L151.4 337.1c-6.7 13.9-12.7 28.6-17.9 43.5l96.5 70.5c9.3 6.7 14.3 18.1 12.9 29.6-1.2 10.1-1.9 20.6-1.9 31.1 0 10.7 0.7 21 1.9 31.3 1.4 11.5-3.6 22.7-12.9 29.6l-96.5 70.5c5.2 15 11.2 29.6 17.9 43.5l118.3-18.4c11.4-1.7 22.9 2.8 29.9 11.7 12.9 16.3 27.7 31.1 44.2 44.2 8.9 7.2 13.6 18.6 11.7 29.9L337.1 872.6z" fill="#575B66" p-id="1131"></path></svg>