<svg xmlns="http://www.w3.org/2000/svg" viewBox="0 0 1024 1024" version="1.1"><path d="M911.3 158.1c0-0.5 0-1 0-1.5L911.3 100.3c0-17.7-14.3-32-32-32-17.7 0-32 14.3-32 32 0 0 0 25.8-25.8 25.8l-622.7 0c-25.8 0-25.8-25.8-25.8-25.8 0-17.7-14.3-32-32-32S109.1 82.6 109.1 100.3l0 154c0 17.7 14.3 32 32 32s32-14.3 32-32l0-0.2c0-64 64-64 64-64l152.1 0c13.6 1.2 56.2 8.9 59.7 57.5l0 584.8c-3.4 48.5-46.1 56.2-59.7 57.5l-37.8 0c-17.7 0-32 14.3-32 32s14.3 32 32 32l129.5 0 0 0 0 0 59.2 0 0 0 0 0 129.5 0c17.7 0 32-14.3 32-32s-14.3-32-32-32l-38 0c-13.6-1.2-56.2-8.9-59.7-57.5l0-584.8c3.4-48.5 46.1-56.2 59.7-57.5l151.9 0c0 0 64-0.2 64 64l0 0.2c0 17.7 14.3 32 32 32s32-14.3 32-32l0-94.6C911.3 159.1 911.3 158.6 911.3 158.1z" fill="#575B66" p-id="1427"></path></svg>