<svg xmlns="http://www.w3.org/2000/svg" viewBox="0 0 1024 1024" version="1.1"><path d="M353 831.9c-35.4 0-64 28.6-64 64 0 35.4 28.6 64 64 64s64-28.6 64-64C417 860.4 388.4 831.9 353 831.9L353 831.9z" fill="#575B66" p-id="911"></path><path d="M801.1 831.9c-35.4 0-64 28.6-64 64 0 35.4 28.6 64 64 64s64-28.6 64-64C865.1 860.4 836.3 831.9 801.1 831.9L801.1 831.9z" fill="#575B66" p-id="912"></path><path d="M937.3 188.5C921 169.9 898.4 160 874 160L232.9 160l-2.2-13.1c-5.7-46.6-46.6-82.9-93.2-82.9L97 64c-17.7 0-32 14.3-32 32s14.3 32 32 32l40.3 0c13.9 0 28.2 12.7 29.9 28.2l31 178.6 54.4 382c5.7 46.6 46.1 83.1 92.4 83.1l520.2 0c17.7 0 32-14.3 32-32s-14.3-32-32-32L344.7 735.9c-13.6 0-27-12.6-28.9-27.5l-5.3-37.3 507.6-31.3c46.1 0 86.7-36.5 92-81.4L960.9 270.1C964.5 239.3 956.1 209.5 937.3 188.5z" fill="#575B66" p-id="913"></path></svg>