<svg xmlns="http://www.w3.org/2000/svg" viewBox="0 0 1024 1024" version="1.1"><path d="M751.9 960 276.8 960c-51.9 0-99.6-40.1-108.5-91.3L99.6 453.1c-4.5-26.1 2.2-52.3 18.6-71.6 16.2-19.3 40.9-30.4 67.6-30.4l657.1 0c26.7 0 51.3 11.2 67.6 30.4s23 45.6 18.4 71.7l-68.5 415.1C851.5 919.9 803.8 960 751.9 960zM185.8 415.2c-7.9 0-14.4 2.8-18.6 7.6-4.1 5-5.7 11.9-4.3 19.8l68.6 415.6c3.4 20.1 24.6 38 45.4 38l475.1 0c20.6 0 42-17.9 45.4-38.2l68.5-415.1c1.4-8.1-0.2-15-4.3-20-4.1-5-10.8-7.6-18.6-7.6L185.8 415.2zM320.5 607.4c-35.3 0-64-28.7-64-64s28.7-64 64-64c35.3 0 64 28.7 64 64C384.5 578.7 355.7 607.4 320.5 607.4zM320.5 543.4C320.5 543.4 320.3 543.4 320.5 543.4l0 32L320.5 543.4zM706.3 607.4c-35.3 0-64-28.7-64-64s28.7-64 64-64 64 28.7 64 64C770.3 578.7 741.6 607.4 706.3 607.4zM706.3 543.4C706.3 543.4 706.3 543.4 706.3 543.4l0 32L706.3 543.4zM738.3 319.9c-17.7 0-32-14.3-32-32 0-91.5-102.2-160-193.7-160-93.6 0-190.2 59.7-190.2 159.6 0 17.7-14.3 32-32 32-17.7 0-32-14.3-32-32 0-140 129.4-223.6 254.4-223.6 122 0 257.7 92 257.7 224C770.3 305.7 756 319.9 738.3 319.9z" fill="#575B66" p-id="938"></path></svg>