<svg xmlns="http://www.w3.org/2000/svg" viewBox="0 0 1024 1024" version="1.1"><path d="M864.2 383.9l-189.2 0c13.8-32 29.6-114.7 20.3-189.7C688.1 134.2 653 88.1 601.7 70.7c-38-12.9-78.3-6.7-99.9 15.5-25.8 26.3-37.8 75.9-50.7 128.3-8.4 34.4-17 69.8-27.9 88.2-31.1 53-96.7 81.4-109.6 81.4l-89.6 0c-17.7 0-32 14.4-32 32.2l0 447.9c0 17.7 14.3 32 32 32l86.5 0c26.8 0 126.4 64 241.9 64l215.9 0c35.6 0 96.8-13.8 119.7-51.8 23-38.5 71.9-388.8 71.9-427.5C959.8 427.1 907.5 383.9 864.2 383.9z" fill="#575B66" p-id="1929"></path><path d="M96 384.1c-17.7 0-32 14.3-32 32l0 447.9c0 17.7 14.3 32 32 32s32-14.3 32-32L128 416.1C128 398.4 113.7 384.1 96 384.1z" fill="#575B66" p-id="1930"></path></svg>