<svg xmlns="http://www.w3.org/2000/svg" viewBox="0 0 1024 1024" version="1.1"><path d="M96 896c-17.7 0-32-14.3-32-32L64 415.9c0-17.7 14.3-32 32-32s32 14.3 32 32l0 447.9C128 881.7 113.7 896 96 896z" fill="#575B66" p-id="1941"></path><path d="M864.2 383.9 674.8 383.9c13.8-32 29.6-114.7 20.5-190.1C688.1 134 652.8 88.1 601.5 70.5c-38-12.9-78.3-6.5-99.9 15.5-25.8 26.3-37.8 75.9-50.7 128.3-8.4 34.2-17 69.8-27.9 88.2-31.1 53-96.3 77.1-109.4 81.4l-89.8 0c-17.7 0-32 14.3-32 32l0 447.9c0 17.7 14.3 32 32 32l86.5 0c26.8 14.4 126.4 64 241.9 64l215.9 0c35.6 0 96.8-13.8 119.7-51.8 23-38.5 71.9-388.8 71.9-427.5C959.8 427.3 907.5 383.9 864.2 383.9zM833.2 875.2c-4.8 8.1-36.5 20.6-64.8 20.6L552.3 895.8c-114.2 0-215.2-64-216.2-64l0 0c-4.8 0-10.1 0-16.2 0l-64 0L256 447.9l64 0c2.6 0 5-0.9 7.4-1.5 0.5-0.2 1 0 1.5-0.2 0.2-0.2 0.9-0.3 1.7-0.5 0.9-0.3 1.7-0.3 2.6-0.9 19.4-6.4 102.5-37.3 145.2-109.9 15.5-26.3 24.9-64.8 34.7-105.4 9.1-37.8 20.6-85 34.1-98.6 3.1-2.6 18.1-6 36.8 1.4 15.3 6 42 23 47.6 69.7 12.6 102.5-31.5 200.1-31.8 201.1-4.6 10-3.8 21.2 2.1 30.3 5.8 9.1 16 14.4 26.8 14.4l235.3 0c8.8 0 31.7 15 31.7 32.9C895.8 523.4 846.5 844.9 833.2 875.2z" fill="#575B66" p-id="1942"></path></svg>