<svg xmlns="http://www.w3.org/2000/svg" viewBox="0 0 1024 1024" version="1.1"><path d="M929.2 286.9l-75.7 0c18.7 0 35.6-37.3 43.2-62.1 9.5-30.4 3.6-60.4-16.5-87-1.4-1.9-2.9-3.4-4.6-4.8-97.4-83.3-229.1-3.1-282.8 36.3-14.4 10-18.1 29.9-8.1 44.4 10 14.6 29.9 18.4 44.6 8.4 0.3-0.2 2.6-1.9 2.9-2.1 30.6-22.5 134.7-91.3 199-40.4 6 8.9 7.4 17.4 4.5 26.8-7.6 24.6-39.7 47.5-55.2 52.6-60.2 22.5-79.8 24.9-105.1 26.7-2.1 0.2-4 1.2-5.8 1.2l-88.4 0c-1.4 0-2.6-4.1-4.5-6-33-30.8-111.3-103-126.8-113.5-118-80.5-224.8-93.1-293.5-34.4-1.7 1.5-3.3 3.3-4.6 5C131.4 164.6 125.6 194.4 135 224.8c7.6 24.8 24.4 62.1 43 62.1L96.5 286.9c-17.7 0-33.4 15.1-33.4 32.9L63.1 479.9c0 17.7 0 32 32 32l0 313.2c0 55.9 42.7 102.3 93.4 102.3l645.9 0c51.3 0 93.4-47.5 93.4-102.3L927.8 511.9c32 0 32-14.3 32-32l0-160.1C960 302.1 946.9 286.9 929.2 286.9zM356.6 285.7c-25.3-1.9-44.9-4.3-106.3-27.4-14.4-4.8-46.4-27.5-54.2-52.1-2.9-9.5-1.5-17.9 4.5-26.8 64.2-50.4 169.8 11.4 214.8 42.1 6.4 4.5 37.7 33.2 73.5 65.2l-126.4 0C360.5 286.9 358.6 285.9 356.6 285.7zM895.8 350.9l0 96.2L131.1 447.1c-0.9 0-4 1.2-4 1.2L127.1 350.9 895.8 350.9zM834.4 863.5 188.5 863.5c-16.5 0-29.4-20.6-29.4-38.4L159.1 511.1l704.7 0 0 314.1C863.9 844.2 850.3 863.5 834.4 863.5z" fill="#575B66" p-id="1865"></path></svg>