<svg xmlns="http://www.w3.org/2000/svg" viewBox="0 0 1024 1024" version="1.1"><path d="M885.7 681.5c-13.8-11.2-33.9-8.9-44.9 4.8-11.2 13.8-8.9 33.9 4.8 44.9 22.4 18.1 52.5 71.7 52.5 102 0 54-43.9 97.9-97.9 97.9-31.8 0-61.8-15.5-80.2-41.5-2.2-3.1-61.6-88.6-96.2-125.7-61.1-65.2-163.6-61.6-163.9-61.6C330.3 675.7 241.3 570.4 257.7 462.7c8.1-53.7 40.9-100.8 92.7-132.5 53.5-32.7 120.2-45.2 188-34.9 67.8 10.1 127.8 41.8 169.3 88.8 40.1 45.6 57.6 100.1 49.5 154-3.1 20.6-9.8 40.4-20.3 58.8-8.6 15.3-3.3 34.9 12.2 43.5 15.3 8.6 34.9 3.3 43.5-12.2 14.1-25.3 23.6-52.5 27.7-80.7 11-72.8-12-145.7-64.8-205.7-51.4-58.3-125.2-97.4-207.8-109.7-82.6-12.4-164.6 3.1-231 43.7-68.1 41.8-111.6 104.8-122.5 177.5-21.3 141.2 89.6 278.3 252.7 312 2.2 0.5 89.3-1 130 42.7 35.8 38.2 90.5 121.3 94.6 123.9 30.4 39.9 77.9 63.6 128.5 63.6 89.3 0 161.9-72.6 161.9-161.9C962.1 781.6 921.8 710.4 885.7 681.5z" fill="#575B66" p-id="1450"></path><path d="M64.3 320.8c0 35.3 28.7 64 64 64s64-28.7 64-64-28.7-64-64-64S64.3 285.5 64.3 320.8z" fill="#575B66" p-id="1451"></path><path d="M272.8 228.3c-11 0-22-3.8-31-11.4-20-17-22.7-46.8-6-67.1 4-4.8 98.7-115.6 277.1-80 26 5.2 42.8 30.4 37.7 56.4s-30.4 43-56.4 37.7c-120.8-24.3-182.3 44.7-184.9 47.6C299.8 222.6 286.4 228.3 272.8 228.3z" fill="#575B66" p-id="1452"></path></svg>