<svg xmlns="http://www.w3.org/2000/svg" viewBox="0 0 1024 1024" version="1.1"><path d="M209.5 890.9c-62.6 0-113.5-50.9-113.5-113.5L96 278.8c0-62.6 50.9-113.5 113.5-113.5L832.5 165.3c62.6 0 113.5 50.9 113.5 113.5l0 498.5c0 62.6-50.9 113.5-113.5 113.5L209.5 890.9zM209.5 226.2c-28.9 0-52.6 23.6-52.6 52.6l0 498.5c0 28.9 23.6 52.6 52.6 52.6L832.5 830c28.9 0 52.6-23.6 52.6-52.6L885.2 278.8c0-28.9-23.6-52.6-52.6-52.6L209.5 226.2zM791.1 703.9c-16.9 0-30.4-13.8-30.4-30.4 0-51.9-42.1-94.1-94.1-94.1s-94.1 42.1-94.1 94.1c0 16.9-13.8 30.4-30.4 30.4-16.9 0-30.4-13.8-30.4-30.4 0-53.2 27.4-102.2 72.4-130.6-19.8-21-30.8-48.5-30.8-77.2 0-62.6 50.9-113.5 113.5-113.5s113.5 50.9 113.5 113.5c0 28.7-11.2 56.1-30.8 77.2 44.9 28.4 72.4 77.2 72.4 130.6C821.7 690.1 808 703.9 791.1 703.9zM666.6 413.2c-28.9 0-52.6 23.6-52.6 52.6s23.6 52.6 52.6 52.6c29.1 0 52.6-23.6 52.6-52.6S695.5 413.2 666.6 413.2z" fill="#575B66" p-id="1142"></path><path d="M434.5 413.9 248.2 413.9c-17.7 0-32-14.3-32-32 0-17.7 14.3-32 32-32l186.3 0c17.7 0 32 14.3 32 32C466.5 399.6 452.2 413.9 434.5 413.9z" fill="#575B66" p-id="1143"></path><path d="M434.5 559.9 248.2 559.9c-17.7 0-32-14.3-32-32s14.3-32 32-32l186.3 0c17.7 0 32 14.3 32 32S452.2 559.9 434.5 559.9z" fill="#575B66" p-id="1144"></path><path d="M434.5 704.4 248.2 704.4c-17.7 0-32-14.3-32-32s14.3-32 32-32l186.3 0c17.7 0 32 14.3 32 32S452.2 704.4 434.5 704.4z" fill="#575B66" p-id="1145"></path></svg>