<svg xmlns="http://www.w3.org/2000/svg" viewBox="0 0 1024 1024" version="1.1"><path d="M986 590c-10.3-14.3-30.3-17.5-44.7-7.2l-56.9 40.9c9.8-36 15-73.1 15-110.8 0-230-187.2-417-417-417C252.3 96 65.4 283 65.4 512.9s187.2 417 417 417c72.8 0 144-19.1 206.8-55 3.4-0.7 6.7-1.7 9.8-3.6 17.9-10.7 35.1-22.7 51.1-36 13.6-11.2 15.7-31.3 4.3-45.1-11.2-13.6-31.3-15.7-45.1-4.3-12.6 10.3-26.1 19.6-40.1 28.2-2.1 0.7-4.3 1-6.4 2.2-54.4 32.5-116.8 49.5-180.6 49.5-194.7 0-353-158.4-353-353S287.6 160 482.3 160 835.3 318.2 835.3 512.9c0 44.2-8.3 87.6-24.1 128.2l-45.2-108.7c-6.9-16.3-25.6-23.9-41.8-17.2-16.3 6.7-24.1 25.5-17.2 41.8l72.1 172.9c0.7 1.9 1.9 3.3 2.9 5 0.3 0.5 0.3 1 0.7 1.4 0.2 0.2 0.3 0.2 0.3 0.3 2.8 3.6 6.2 6.5 10.1 8.8 0.7 0.3 1.4 0.7 2.1 1 3.3 1.5 6.9 2.8 10.7 3.1 0.7 0 1.2-0.2 1.9 0 0.3 0 0.5 0.2 0.9 0.2 0.7 0 1.4-0.2 2.1-0.3 2.4-0.2 4.8-0.5 7.1-1 0.5-0.2 1-0.3 1.4-0.5 2.6-0.9 5-2.1 7.2-3.6 0.3-0.2 0.7-0.3 1-0.5l151.4-108.9C993 624.2 996.3 604.3 986 590z" fill="#575B66" p-id="1299"></path><path d="M606.7 374.5c12.7-12.2 13.1-32.5 0.7-45.2-12.2-12.7-32.5-13.1-45.2-0.7l-79.8 77.1L402.7 328.5c-12.7-12.2-33-12-45.2 0.7-12.2 12.7-12 33 0.7 45.2l89.8 86.7L447.9 479.9l-64 0c-17.7 0-32 14.3-32 32s14.3 32 32 32l64 0 0 32-64 0c-17.7 0-32 14.3-32 32s14.3 32 32 32l64 0 0 67.3c0 17.7 14.3 32 32 32s32-14.3 32-32L511.9 639.9l64 0c17.7 0 32-14.3 32-32s-14.3-32-32-32l-64 0 0-32 64 0c17.7 0 32-14.3 32-32s-14.3-32-32-32l-64 0L511.9 466.2 606.7 374.5z" fill="#575B66" p-id="1300"></path></svg>