<svg xmlns="http://www.w3.org/2000/svg" viewBox="0 0 1024 1024" version="1.1"><path d="M889.8 749.6c-1.2-1.7-119.2-165.8-119.2-287.4 0-168.4-76.2-254.8-162.7-286.9L607.9 160c0-53-43.2-96-96-96S415.9 107.2 415.9 160l0 15.3c-86.5 32.2-162.7 118.5-162.7 286.9 0 121.3-118 285.2-119.2 286.9-5.3 7.6-7.4 16.9-5.3 26 2.1 8.9 7.9 16.7 16 21 5.7 3.1 107.3 57.3 233.4 84.5 21.3 66.4 74 111.3 133.7 111.3s112.3-44.9 133.7-111.3c126.1-27.2 227.7-81 233.4-83.9 8.3-4.5 13.9-12 16.2-21C897.2 766.7 895.3 757.2 889.8 749.6zM479.9 160c0-17.5 14.4-32 32-32 17.5 0 32 14.4 32 32l0 0.9c-7.2-0.5-14.3-0.9-21.3-0.9l-21.3 0c-7.1 0-14.1 0.3-21.3 0.9L479.9 160 479.9 160zM511.9 928c-22.4 0-43.2-13.4-58-35.3 19.3 2.1 38.5 3.3 58 3.3s38.9-1.4 58-3.3C555.1 914.6 534.3 928 511.9 928z" fill="#575B66" p-id="1277"></path></svg>