<svg xmlns="http://www.w3.org/2000/svg" viewBox="0 0 1024 1024" version="1.1"><path d="M512 64c-247 0-448 201-448 448S265 960 512 960 960 759 960 512 759 64 512 64zM512 832.4c-26.5 0-48-21.5-48-48 0-26.5 21.5-48 48-48s48 21.5 48 48S538.5 832.4 512 832.4zM600.6 505.2c-27.8 27.8-56.6 56.5-56.6 82.4l0 54.1c0 17.7-14.3 32-32 32s-32-14.3-32-32l0-54.1c0-52.4 40-92.4 75.3-127.6 25.9-25.9 52.7-52.6 52.7-74 0-53.3-43.1-96.7-96-96.7-53.8 0-96 41.5-96 94.6 0 17.7-14.3 32-32 32s-32-14.3-32-32c0-87.4 71.8-158.6 160-158.6s160 72.1 160 160.7C672 433.8 635.7 470.1 600.6 505.2z" fill="#575B66" p-id="712"></path></svg>