<svg xmlns="http://www.w3.org/2000/svg" viewBox="0 0 1024 1024" version="1.1"><path d="M464 784.4c0 26.5 21.5 48 48 48s48-21.5 48-48c0-26.5-21.5-48-48-48S464 757.8 464 784.4z" fill="#575B66" p-id="723"></path><path d="M512 960c-247 0-448-201-448-448S265 64 512 64 960 265 960 512 759 960 512 960zM512 128.3c-211.6 0-383.7 172.1-383.7 383.7 0 211.6 172.1 383.7 383.7 383.7 211.6 0 383.7-172.2 383.7-383.7C895.7 300.4 723.6 128.3 512 128.3z" fill="#575B66" p-id="724"></path><path d="M512 673.7c-17.7 0-32-14.3-32-32l0-54.1c0-52.4 40-92.4 75.3-127.6 25.9-25.9 52.7-52.7 52.7-74 0-53.3-43.1-96.7-96-96.7-53.8 0-96 41.5-96 94.6 0 17.7-14.3 32-32 32s-32-14.3-32-32c0-87.4 71.8-158.6 160-158.6s160 72.1 160 160.7c0 47.9-36.3 84.2-71.4 119.3-27.8 27.8-56.6 56.5-56.6 82.3l0 54.1C544 659.3 529.7 673.7 512 673.7z" fill="#575B66" p-id="725"></path></svg>