<svg xmlns="http://www.w3.org/2000/svg" viewBox="0 0 1024 1024" version="1.1"><path d="M778 603.6c6.2 6.3 14.5 9.4 22.7 9.4 8.2 0 16.3-3.1 22.6-9.3 12.5-12.4 12.6-32.7 0.1-45.2L540 273.4c-5.3-10.2-15.7-17.4-28-17.4-14 0-25.6 9.2-29.9 21.7L231.2 528.1c-12.5 12.5-12.5 32.7-0 45.2 6.2 6.3 14.4 9.4 22.7 9.4 8.2 0 16.4-3.1 22.6-9.3l203.6-203.3 0 557.8c0 17.7 14.3 32 32 32s32-14.3 32-32L544 368.2 778 603.6z" fill="#575B66" p-id="1498"></path><path d="M896 160c0-17.7-14.3-32-32-32L160 128c-17.7 0-32 14.3-32 32s14.3 32 32 32l704 0C881.7 192 896 177.7 896 160z" fill="#575B66" p-id="1499"></path><path d="M817.4 672.3c-79.4 0-144 64.6-144 144s64.6 144 144 144 144-64.6 144-144S896.8 672.3 817.4 672.3zM897.4 816.3c0 11.2-2.3 21.8-6.5 31.5l-105-105c9.7-4.1 20.3-6.5 31.5-6.5C861.5 736.3 897.4 772.2 897.4 816.3zM737.4 816.3c0-9.4 2-18.3 4.9-26.7l101.8 101.8c-8.4 3-17.2 4.9-26.7 4.9C773.2 896.3 737.4 860.4 737.4 816.3z" fill="#575B66" p-id="1500"></path></svg>