<svg xmlns="http://www.w3.org/2000/svg" viewBox="0 0 1024 1024" version="1.1"><path d="M982 404.4 573.3 83.9c-34.9-27.7-89.6-27.7-124.5 0L43.2 404.6c-13.9 11-16.2 31.1-5.3 44.9s31.1 16.2 44.9 5.3l13.1-10.3 0 387.5c0 54.9 56.9 96 107.9 96l639.9 0c50.2 0 84.1-38.5 84.1-96L927.7 443.5l14.4 11.4c5.8 4.6 12.7 6.9 19.8 6.9 9.5 0 18.9-4.1 25.3-12.2C998.4 435.5 995.8 415.4 982 404.4zM607.9 797.1l0 66.7-64 0-64 0-64 0 0-66.7 0-112.3c0-37.2 30.1-77.2 96-77.2 66.1 0 96 40.1 96 77.2L607.9 797.1 607.9 797.1z" fill="#575B66" p-id="1179"></path></svg>